<svg xmlns="http://www.w3.org/2000/svg" viewBox="0 0 197.54 315" xmlns:v="https://vecta.io/nano"><path d="M35.41 92.5c.97-.62 1.77-1.42 2.39-2.39.45 2.04-.35 2.84-2.39 2.39z" fill="#e5e5e5"/><path d="M29.79 118.41l9.53-.04c2.4-.16 3.15.41 3.14 3.01v161.35l-.08 1.85h8.63c-.16-2.13.33-3.9.15-5.35-.26-2.06.53-2.5 2.51-2.49l57.22.04c1.11 0 2.22.13 3.31-.32 2.1-.86 3.15-2.45 2.86-4.64-.29-2.17-1.64-3.55-3.92-3.78l-2.58-.12H57.48c-6.29.07-6.19.07-6.33-6.09-.05-2.08.4-2.7 2.61-2.69l59.28.06c2.01 0 4.07.28 5.73-2.53a3.89 3.89 0 0 0 .51-2.4c-.25-2.07-1.47-3.45-3.61-3.77-.93-.14-1.89-.09-2.83-.09-18.39 0-36.77 0-55.16-.01-2.05 0-4.74.66-5.97-.37-1.46-1.22-.22-4.03-.53-6.12-.29-2.02.55-2.35 2.4-2.35l61.34.03c1.37 0 2.8.01 4.05-.5 1.77-.72 2.67-2.67 2.44-4.58-.24-1.99-1.45-3.23-3.54-3.59-.92-.16-1.88-.13-2.82-.13H56.8c-5.61 0-5.45 0-5.68-5.57-.11-2.72.69-3.34 3.35-3.33l63.92.06c3.45 0 5.5-1.74 5.45-4.45-.05-2.64-2.05-4.27-5.33-4.35-.6-.02-1.2 0-1.8 0-19.76 0-39.52.02-59.28-.02-2.02 0-4.7.94-5.88-.44-.99-1.17-.17-3.77-.38-5.72-.23-2.15.51-2.68 2.66-2.67l60.05.05c1.8 0 3.61.05 5.41-.02 2.67-.11 4.51-1.88 4.55-4.28.03-2.38-1.78-4.23-4.43-4.47-.77-.07-1.55-.03-2.32-.03H57.55c-2.04 0-4.72.63-5.95-.4-1.3-1.09-.19-3.87-.44-5.89s.46-2.55 2.5-2.54l60.05.05c1.37 0 2.76.09 4.12-.09 1.74-.23 3.19-1.56 3.51-3.28.46-2.51-.56-4.2-2.81-5.11-1-.41-2.03-.3-3.05-.3-19.33 0-38.66 0-57.99-.02-2.04 0-4.81.9-5.9-.39-1.03-1.21-.21-3.91-.44-5.93-.24-2.08.56-2.5 2.53-2.49l59.28.04c.77 0 1.55.05 2.32-.04 2.25-.26 3.98-2.17 3.98-4.34 0-2.16-1.72-4.08-3.97-4.35-.76-.09-1.54-.04-2.32-.04H57.56c-2.04 0-4.72.64-5.95-.39-1.3-1.08-.19-3.87-.43-5.88-.23-1.94.34-2.57 2.44-2.56l50.52.05c.86 0 1.74.06 2.57-.09 2.26-.41 3.78-2.41 3.61-4.63-.16-2.15-1.77-3.8-3.98-4.02-.77-.08-1.55-.04-2.32-.04H57.63c-2.04 0-4.77.67-5.96-.37-1.41-1.23-.19-4.04-.49-6.13-.3-2.06.61-2.33 2.42-2.32l42.27.04c2.04 0 4.11.23 5.67-3.22.2-.44.3-.94.26-1.42-.19-2.28-1.45-3.75-3.71-4.08-.84-.12-1.71-.07-2.57-.07-14 0-28.01-.03-42.01.03-1.78 0-2.61-.3-2.31-2.44.19-1.31.18-2.65.02-3.97-.22-1.84.06-2.48 1.89-2.47h47.42c1.53 0 2.27.6 3.01 1.8 3.3 5.32 6.41 10.74 9.23 16.33 9.28 18.4 15.4 37.72 17.03 58.35.86 10.9.55 21.8-.13 32.7-.99 16.05-2.83 31.96-7.74 47.37-.88 2.75.16 5.12 2.48 5.94 2.52.89 4.76-.3 5.83-3.16 1.29-3.46 2.2-7.02 3.03-10.62 3.45-14.95 4.95-30.14 5.55-45.43.52-13.31.56-26.62-1.66-39.84-3.68-21.9-11.58-42.22-22.82-61.3-.35-.59-1.09-1.12-.71-2.1 2.66 0 5.32.11 7.97-.04 1.61-.09 2.44.55 3.24 1.86 7.47 12.22 12.82 25.35 16.69 39.1 8.89 31.63 7.38 63.57 2.73 95.59-.99 6.82-2.51 13.56-4.74 20.08-1.25 3.65 1.44 6.72 4.99 5.98 2.27-.47 3.06-2.26 3.68-4.2 3.73-11.75 5.68-23.84 6.84-36.08 1.89-19.96 2.66-39.93-.08-59.89-2.93-21.36-9.32-41.57-19.77-60.47-.31-.56-.93-1.03-.65-1.93h10.02c2.66 0 5.33.11 7.99-.08 2.3-.16 3.82-1.49 4.09-3.89.24-2.13-.72-3.74-2.68-4.49-1-.39-2.19-.33-3.3-.33-13.49-.02-26.98-.05-40.46.03-1.91.01-3.08-.49-4.2-2.12C92.02 87.3 75.4 69.42 56.05 54.17c-3.66-2.88-5.6-5.67-4.93-10.39.42-2.95.18-6.01.02-9.01-.14-2.63-2.15-4.38-4.55-4.29-2.36.09-4 1.79-4.17 4.36-.05.86-.03 1.72-.03 2.58l.04 69.85c0 1.89-.4 2.56-2.39 2.46-3.43-.17-6.87-.09-10.31-.03-3.11.05-4.94 1.72-4.92 4.38.02 2.63 1.87 4.33 4.97 4.4zM51.2 61.39c17.24 14.35 32.15 30.05 44.93 47.82-.82.7-1.62.39-2.33.39-13.3.02-26.6-.05-39.89.08-2.37.02-2.77-.68-2.76-2.86l.05-45.43z" fill="#212020"/></svg>