<svg xmlns="http://www.w3.org/2000/svg" viewBox="0 0 16 16" xmlns:v="https://vecta.io/nano"><rect width="16" height="16" rx="2.62" fill="#fff"/><path d="M4.4 5.69H5c.14 0 .19 0 .19.17q0 4.77 0 9.54a.8.8 0 0 0 0 .11h.51v-.32c0-.09 0-.15.15-.15h3.38a.61.61 0 0 0 .19 0 .24.24 0 0 0 .17-.28.22.22 0 0 0-.23-.22H6c-.37 0-.36 0-.37-.36 0-.12 0-.16.15-.16h3.54a.31.31 0 0 0 .33-.15.19.19 0 0 0 0-.14.23.23 0 0 0-.21-.23H6.05h-.36c-.08 0 0-.23 0-.36s0-.14.14-.14h3.6a.66.66 0 0 0 .24 0 .27.27 0 0 0 .14-.27.24.24 0 0 0-.21-.22H6c-.33 0-.32 0-.33-.33 0-.16 0-.2.2-.2h3.76c.21 0 .33-.1.32-.26s-.12-.25-.31-.26H6c-.12 0-.28.06-.35 0s0-.23 0-.34 0-.16.16-.16h3.87a.26.26 0 1 0 0-.51H6h-.35c-.07 0 0-.23 0-.35s0-.15.15-.15h3.8a.24.24 0 0 0 .21-.19.27.27 0 0 0-.17-.31.55.55 0 0 0-.18 0H6c-.12 0-.28.05-.34 0s0-.23 0-.35 0-.15.15-.14h3.64a.26.26 0 0 0 0-.52H6h-.35c-.07 0 0-.23 0-.35s0-.15.15-.15h3.14a.26.26 0 0 0 .21-.28.26.26 0 0 0-.23-.24H6h-.35c-.07 0 0-.24 0-.36s0-.14.14-.14H8.3a.29.29 0 0 0 .34-.19.19.19 0 0 0 0-.08.23.23 0 0 0-.22-.24H5.8c-.11 0-.16 0-.14-.15a.89.89 0 0 0 0-.23c0-.11 0-.15.12-.15h2.8a.18.18 0 0 1 .17.11 7.87 7.87 0 0 1 .55 1 9.28 9.28 0 0 1 1 3.45 13.81 13.81 0 0 1 0 1.93 11.54 11.54 0 0 1-.46 2.8.26.26 0 0 0 .15.35.26.26 0 0 0 .34-.19 4.4 4.4 0 0 0 .18-.62 15.21 15.21 0 0 0 .33-2.69 11.57 11.57 0 0 0-.1-2.35 10.51 10.51 0 0 0-1.35-3.85s-.06-.07 0-.13h.47a.18.18 0 0 1 .14.11 9.26 9.26 0 0 1 1 2.31 13.62 13.62 0 0 1 .16 5.65 6.75 6.75 0 0 1-.28 1.18.26.26 0 0 0 .29.36.3.3 0 0 0 .22-.25 10.28 10.28 0 0 0 .41-2.13 15.52 15.52 0 0 0 0-3.54 10 10 0 0 0-1.17-3.57v-.12h1.07a.25.25 0 0 0 .24-.23.24.24 0 0 0-.16-.27.62.62 0 0 0-.19 0H9.15a.26.26 0 0 1-.25-.13A14.52 14.52 0 0 0 6 1.89a.59.59 0 0 1-.29-.61 3.13 3.13 0 0 0 0-.53.27.27 0 0 0-.32-.26.26.26 0 0 0-.25.26V5c0 .11 0 .15-.14.15h-.61c-.18 0-.29.11-.29.26s.11.26.3.26zm1.26-3.37a15.46 15.46 0 0 1 2.66 2.83h-.14-2.36c-.14 0-.16 0-.16-.17V2.32z" fill="#212020"/></svg>