<?xml version="1.0" encoding="UTF-8" standalone="no"?>
<svg
   viewBox="0 0 120.00205 37.101025"
   version="1.1"
   id="svg76"
   sodipodi:docname="5c66982bf40225846023a8cdd43115b7.svg"
   width="120.00205"
   height="37.101025"
   xmlns:inkscape="http://www.inkscape.org/namespaces/inkscape"
   xmlns:sodipodi="http://sodipodi.sourceforge.net/DTD/sodipodi-0.dtd"
   xmlns="http://www.w3.org/2000/svg"
   xmlns:svg="http://www.w3.org/2000/svg">
  <defs
     id="defs80" />
  <sodipodi:namedview
     id="namedview78"
     pagecolor="#ffffff"
     bordercolor="#666666"
     borderopacity="1.0"
     inkscape:pageshadow="2"
     inkscape:pageopacity="0.0"
     inkscape:pagecheckerboard="0" />
  <style
     id="style2"><![CDATA[.F{letter-spacing:2}.I{font-family:Dubai-Bold}.J{font-size:3.489px}.K{font-family:JannaLT-Bold}.L{font-size:4.235px}]]></style>
  <path
     d="m 39.301025,7.0010251 0.3,-0.3 c 0.1,0.3 0,0.4 -0.3,0.3"
     fill="#e5e5e5"
     id="path4" />
  <path
     d="m 18.501025,11.801025 v 16.7 h -1.5 v -14.4 l -1,1.9 -5.1,9.6 H 9.6010251 l -5,-9.6 -0.3,-0.5 -0.7,-1.3 v 14.4 h -1.4 v -16.8 h 1.7 l 5.1,9.7 0.4,0.7 0.9999999,2 c 0.2,-0.4 0.3,-0.8 0.6,-1.3 0.2,-0.5 0.5,-0.9 0.7,-1.4 l 5.2,-9.7 z m 7.3,15.6 c -1.1,-0.7 -2,-1.7 -2.6,-3.1 -0.6,-1.3 -0.9,-2.8 -0.9,-4.5 0,-1.9 0.4,-3.5 1.1,-4.8 0.7,-1.3 1.7,-2.2 2.8,-2.8 1.2,-0.6 2.4,-0.9 3.8,-0.9 1.6,0 2.9,0.4 4.1,1.1 1.1,0.7 2,1.7 2.6,3.1 0.6,1.3 0.9,2.8 0.9,4.5 0,1.9 -0.4,3.5 -1.1,4.8 -0.7,1.3 -1.6,2.2 -2.8,2.8 -1.2,0.6 -2.4,0.9 -3.8,0.9 -1.6,0 -2.9,-0.3 -4.1,-1.1 m 7.5,-1 c 0.9,-0.6 1.6,-1.5 2.1,-2.6 0.5,-1.1 0.7,-2.4 0.7,-3.8 0,-1.4 -0.2,-2.7 -0.7,-3.9 -0.5,-1.1 -1.1,-2 -2,-2.7 -0.9,-0.6 -2,-1 -3.4,-1 -1.3,0 -2.5,0.3 -3.4,0.9 -0.9,0.6 -1.7,1.5 -2.1,2.6 -0.5,1.1 -0.7,2.4 -0.7,3.8 0,1.4 0.2,2.7 0.7,3.8 0.5,1.1 1.1,2 2,2.7 0.9,0.6 2,1 3.4,1 1.4,0.1 2.5,-0.2 3.4,-0.8 m 5.4,-16.3 h 1.1 c 0.3,0 0.4,0 0.4,0.4 v 18.9 0.1 h 1 v -0.5 c 0,-0.2 0.1,-0.3 0.3,-0.3 h 6.7 0.4 c 0.2,-0.1 0.4,-0.3 0.3,-0.5 0,-0.3 -0.2,-0.4 -0.5,-0.4 h -0.3 -6.2 c -0.7,0 -0.7,0 -0.7,-0.7 0,-0.2 0,-0.3 0.3,-0.3 h 7 c 0.2,0 0.5,0 0.7,-0.3 0,-0.1 0.1,-0.2 0.1,-0.3 0,-0.2 -0.2,-0.4 -0.4,-0.4 h -0.3 -6.5 c -0.2,0 -0.6,0.1 -0.7,0 -0.2,-0.1 0,-0.5 -0.1,-0.7 0,-0.2 0.1,-0.3 0.3,-0.3 h 7.2 c 0.2,0 0.3,0 0.5,-0.1 a 0.55,0.55 0 0 0 0.3,-0.5 c 0,-0.2 -0.2,-0.4 -0.4,-0.4 h -0.3 -6.9 c -0.7,0 -0.6,0 -0.7,-0.7 0,-0.3 0.1,-0.4 0.4,-0.4 h 7.5 c 0.4,0 0.6,-0.2 0.6,-0.5 0,-0.3 -0.2,-0.5 -0.6,-0.5 h -0.2 -7 c -0.2,0 -0.6,0.1 -0.7,-0.1 -0.1,-0.1 0,-0.4 0,-0.7 0,-0.3 0.1,-0.3 0.3,-0.3 h 7.1 0.6 a 0.47,0.47 0 0 0 0.5,-0.5 0.47,0.47 0 0 0 -0.5,-0.5 h -0.3 -7 c -0.2,0 -0.6,0.1 -0.7,0 -0.2,-0.1 0,-0.5 -0.1,-0.7 0,-0.2 0.1,-0.3 0.3,-0.3 h 7.1 0.5 c 0.2,0 0.4,-0.2 0.4,-0.4 0.1,-0.3 -0.1,-0.5 -0.3,-0.6 h -0.4 -6.8 c -0.2,0 -0.6,0.1 -0.7,0 -0.1,-0.1 0,-0.5 -0.1,-0.7 0,-0.2 0.1,-0.3 0.3,-0.3 h 7 0.3 c 0.3,0 0.5,-0.3 0.5,-0.5 a 0.47,0.47 0 0 0 -0.5,-0.5 h -0.3 -6.5 c -0.2,0 -0.6,0.1 -0.7,0 -0.2,-0.1 0,-0.5 -0.1,-0.7 0,-0.2 0,-0.3 0.3,-0.3 h 5.9 0.3 c 0.3,0 0.4,-0.3 0.4,-0.5 0,-0.3 -0.2,-0.4 -0.5,-0.5 h -0.3 -5.5 c -0.2,0 -0.6,0.1 -0.7,0 -0.2,-0.1 0,-0.5 -0.1,-0.7 0,-0.2 0.1,-0.3 0.3,-0.3 h 5 c 0.2,0 0.5,0 0.7,-0.4 v -0.2 c 0,-0.3 -0.2,-0.4 -0.4,-0.5 h -0.3 -4.9 c -0.2,0 -0.3,0 -0.3,-0.3 v -0.5 c 0,-0.2 0,-0.3 0.2,-0.3 h 5.6 c 0.2,0 0.3,0.1 0.4,0.2 0.4,0.6 0.8,1.3 1.1,1.9 1.1,2.2 1.8,4.4 2,6.8 0.1,1.3 0.1,2.6 0,3.8 -0.1,1.9 -0.3,3.7 -0.9,5.5 -0.1,0.3 0,0.6 0.3,0.7 0.3,0.1 0.6,0 0.7,-0.4 0.2,-0.4 0.3,-0.8 0.4,-1.2 0.4,-1.7 0.6,-3.5 0.7,-5.3 0.1,-1.6 0.1,-3.1 -0.2,-4.7 -0.4,-2.6 -1.4,-4.9 -2.7,-7.2 0,-0.1 -0.1,-0.1 -0.1,-0.2 h 0.9 c 0.2,0 0.3,0.1 0.4,0.2 0.9,1.4 1.5,3 2,4.6 1,3.7 0.9,7.4 0.3,11.2 -0.1,0.8 -0.3,1.6 -0.6,2.3 -0.1,0.4 0.2,0.8 0.6,0.7 0.3,-0.1 0.4,-0.3 0.4,-0.5 0.4,-1.4 0.7,-2.8 0.8,-4.2 0.2,-2.3 0.3,-4.7 0,-7 -0.3,-2.5 -1.1,-4.9 -2.3,-7.1 0,-0.1 -0.1,-0.1 -0.1,-0.2 h 1.2 0.9 c 0.3,0 0.4,-0.2 0.5,-0.4999999 a 0.55,0.55 0 0 0 -0.3,-0.5 h -0.4 -4.8 c -0.2,0 -0.4,-0.1 -0.5,-0.2 -1.6,-2.4 -3.6,-4.5 -5.9,-6.3 -0.4,-0.3 -0.7,-0.7 -0.6,-1.2 V 0.50102512 c 0,-0.3 -0.3,-0.5 -0.5,-0.5 a 0.47,0.47 0 0 0 -0.5,0.5 v 0.3 8.19999998 c 0,0.2 0,0.3 -0.3,0.3 h -1.2 c -0.4,0 -0.6,0.2 -0.6,0.5 0.1,0.1 0.3,0.2999999 0.7,0.2999999 m 2.5,-6.6999999 c 2,1.7 3.8,3.5 5.3,5.6 -0.1,0.1 -0.2,0 -0.3,0 h -4.7 c -0.3,0 -0.3,-0.1 -0.3,-0.3 v -5.3"
     fill="#212020"
     id="path6" />
  <g
     fill="#c10000"
     id="g22"
     transform="translate(0.30102512,0.40102512)">
    <path
       d="m 59.9,17.9 h -3.8 c 0,0.3 -0.1,0.7 -0.1,1.1 h 3.8 c 0,-0.4 0,-0.8 0.1,-1.1 m -0.1,2 H 56 c 0,0.4 0,0.7 0.1,1 h 3.8 c 0,-0.3 -0.1,-0.6 -0.1,-1 m -3.5,-3 h 3.8 c 0.1,-0.4 0.2,-0.7 0.4,-1 h -4 c -0.1,0.3 -0.2,0.6 -0.2,1 m 7.2,-3.1 h -6 c -0.1,0.2 -0.3,0.4 -0.4,0.6 -0.1,0.1 -0.1,0.3 -0.2,0.4 h 4.3 c 0.6,-0.6 1.4,-0.9 2.3,-1 m 6.1,-1.6 C 68.7,11.7 67.8,11.3 67,11.1 66.1,10.9 65.1,10.7 64.1,10.7 62.6,10.7 61.2,11 60,11.6 a 6.57,6.57 0 0 0 -1.7,1.2 h 11 z"
       id="path8" />
    <path
       d="m 65,13.8 c 1.1,0.1 2.1,0.4 3,1 h 0.3 l 0.5,-1 z"
       id="path10" />
    <path
       d="M 64.2,13.8 H 63.5 65 M 60.6,23 c -0.2,-0.3 -0.3,-0.6 -0.4,-1 h -3.9 c 0.1,0.3 0.2,0.7 0.2,1 z m 3.6,5.1 c 1,0 1.9,-0.1 2.8,-0.4 0.9,-0.3 1.8,-0.7 2.7,-1.3 L 69.5,26 H 58.2 c 1.4,1.5 3.3,2.1 6,2.1 m 4.2,-4 h -0.5 c -0.5,0.3 -1,0.5 -1.4,0.6 -0.6,0.2 -1.2,0.3 -2,0.3 -1.2,0 -2.2,-0.3 -2.9,-0.9 h -4.7 c 0.2,0.3 0.3,0.7 0.5,1 H 69 Z m 43.7,-3.3 h -4.2 l 0.3,-0.9 h -3.7 L 104.1,21 H 116 l -0.4,-1.1 h -3.8 z m -3.6,-1.9 0.4,-1 h -3.6 l -0.4,1 z m 3,0 h 3.7 l -0.4,-1 h -3.7 z m -5.5,-3.1 -0.4,1.1 h 3.6 1.6 3.7 l -0.4,-1.1 z m 0.8,-2 -0.4,1 h 7.3 l -0.4,-1 z m 5.5,-2.7 h -4.5 l -0.7,1.7 h 5.9 z m -10.6,16.5 v 0.2 h 3.9 l 0.5,-1.7 h -3.9 z m 5.1,-3.5 H 103 l -0.4,1 h 3.9 z m 10.7,1 -0.4,-1 h -3.9 l 0.4,1 z m -3,2.7 h 3.9 v -0.2 l -0.5,-1.5 h -4 z m 1.9,-5.8 h -12.6 l -0.4,1 h 13.3 z"
       id="path12" />
    <path
       d="m 113.1,23.8 h -6.2 l -0.1,0.3 h 6.4 z m -35.9,-4.9 0.3,-1 h -3.6 l -0.4,1 z m 3.3,1 0.3,0.9 h -4.3 l 0.3,-0.9 H 73.2 L 72.8,21 h 11.8 l -0.4,-1.1 z m 3.4,-1 -0.4,-1 h -3.7 l 0.3,1 z m -9.2,-3.1 -0.4,1.1 h 3.5 1.6 3.7 L 82.7,15.8 Z M 81,11.1 h -4.6 l -0.6,1.7 h 5.8 z m -5.6,2.7 -0.4,1 h 7.4 L 82,13.8 Z M 85,22 H 72.4 L 72,23 h 13.4 z m -14.6,5.6 v 0.2 h 3.8 l 0.6,-1.7 h -3.9 z m 5,-3.5 h -3.8 l -0.3,1 h 3.8 z m 7.7,3.7 H 87 v -0.2 l -0.5,-1.5 h -3.9 z m 3,-2.7 -0.3,-1 h -3.9 l 0.3,1 z"
       id="path14" />
    <path
       d="m 81.8,23.8 h -6.3 l -0.1,0.3 h 6.5 z m 8.3,-4.9 h 8.5 -0.1 c -0.6,-0.3 -1.4,-0.7 -2.3,-1 h -7.1 a 4.74,4.74 0 0 0 1,1 m 9.7,1 H 92 c 0.4,0.2 0.8,0.4 1.3,0.5 l 0.6,0.2 c 0.2,0.1 0.5,0.2 0.7,0.3 h 6 c -0.1,-0.2 -0.2,-0.4 -0.3,-0.5 -0.2,-0.1 -0.3,-0.3 -0.5,-0.5 m -7,-5.8 C 93,14 93.3,13.8 93.6,13.8 h -5 c -0.1,0.3 -0.2,0.6 -0.2,1 h 3.8 c 0.1,-0.3 0.3,-0.5 0.6,-0.7 m -4.2,2.8 h 5.1 c -0.1,-0.1 -0.2,-0.1 -0.4,-0.2 -0.4,-0.2 -0.8,-0.5 -0.9,-0.7 0,-0.1 -0.1,-0.1 -0.1,-0.2 h -3.9 c 0,0.4 0.1,0.8 0.2,1.1 m 7.2,-3.1 c 0.3,0.1 0.6,0.1 1,0.2 0.5,0.2 1,0.4 1.6,0.8 h 0.8 l 0.7,-1 z m 4.8,-1.2 c -0.9,-0.6 -1.9,-1.1 -2.9,-1.4 -1,-0.3 -2,-0.5 -3,-0.5 -1.1,0 -2.1,0.2 -3,0.5 -1,0.3 -1.7,0.8 -2.3,1.5 h 11.2 z"
       id="path16" />
    <path
       d="m 94.7,13.7 c -0.4,0 -0.7,0 -1,0.1 h 2.1 c -0.4,-0.1 -0.7,-0.1 -1.1,-0.1 m 2.2,8.6 c 0.1,0.2 0.2,0.4 0.3,0.7 h 3.8 c 0,-0.4 0,-0.7 -0.1,-1 h -4.3 l 0.3,0.3 m -6.8,1.8 h -1.2 l -0.6,1 h 5.1 c -1.1,-0.1 -2.1,-0.4 -3.3,-1 m -2.5,2 c 1.8,1.3 4,2 6.6,2 1.3,0 2.4,-0.2 3.4,-0.6 0.9,-0.3 1.6,-0.8 2.2,-1.5 z m 13.2,-2 h -3.9 c -0.1,0.2 -0.3,0.4 -0.6,0.5 -0.4,0.2 -1,0.4 -1.7,0.4 h 5.9 c 0.2,-0.2 0.3,-0.6 0.3,-0.9"
       id="path18" />
    <path
       d="m 94.6,25.1 h -1.2 1.2"
       id="path20" />
  </g>
  <path
     d="M 119.50103,30.601025 H 0.50102512 a 0.47,0.47 0 0 1 -0.5,-0.5 v -0.1 a 0.47,0.47 0 0 1 0.5,-0.5 H 119.50103 a 0.47,0.47 0 0 1 0.5,0.5 v 0.1 a 0.47,0.47 0 0 1 -0.5,0.5"
     fill="#212020"
     id="path24" />
  <text
     transform="scale(1.0084642,0.99160686)"
     id="text46"
     x="60.952114"
     y="35.18655"
     style="font-size:12.1016px;stroke-width:1.00846"><tspan
       x="60.952114"
       y="35.18655"
       class="K L"
       id="tspan26"
       style="stroke-width:1.00846">م.م.</tspan><tspan
       x="71.944374"
       class="F K L"
       y="35.18655"
       id="tspan28"
       style="stroke-width:1.00846">ذ</tspan><tspan
       x="76.885849"
       y="35.18655"
       class="K L"
       id="tspan30"
       style="stroke-width:1.00846">تار</tspan><tspan
       x="86.567108"
       y="35.18655"
       class="K L"
       id="tspan32"
       style="stroke-width:1.00846">ﺎﻘﻌﻠ</tspan><tspan
       x="94.130592"
       class="F K L"
       y="35.18655"
       id="tspan34"
       style="stroke-width:1.00846">ﻟ</tspan><tspan
       x="100.08053"
       y="35.18655"
       class="K L"
       id="tspan36"
       style="stroke-width:1.00846">ﺎ</tspan><tspan
       x="101.08899"
       y="35.18655"
       class="K L"
       id="tspan38"
       style="stroke-width:1.00846">ﺳ</tspan><tspan
       x="105.72793"
       y="35.18655"
       class="K L"
       id="tspan40"
       style="stroke-width:1.00846">ﺎ</tspan><tspan
       x="106.83723"
       y="35.18655"
       class="K L"
       id="tspan42"
       style="stroke-width:1.00846">ﻛد</tspan><tspan
       x="112.28294"
       y="35.18655"
       class="K L"
       id="tspan44"
       style="stroke-width:1.00846">ﻮﻣ</tspan></text>
  <text
     transform="scale(0.95931158,1.0424142)"
     id="text72"
     x="1.999585"
     y="34.173294"
     style="font-size:12.7216px;stroke-width:1.06014"><tspan
       x="1.999585"
       y="34.173294"
       class="I J"
       id="tspan48"
       style="stroke-width:1.06014">MODC</tspan><tspan
       x="13.449046"
       y="34.173294"
       class="I J"
       id="tspan50"
       style="stroke-width:1.06014">A</tspan><tspan
       x="16.099384"
       y="34.173294"
       class="I J"
       id="tspan52"
       style="stroke-width:1.06014">S</tspan><tspan
       x="18.431681"
       y="34.173294"
       class="I J"
       id="tspan54"
       style="stroke-width:1.06014">A REAL E</tspan><tspan
       x="35.28783"
       y="34.173294"
       class="I J"
       id="tspan56"
       style="stroke-width:1.06014">S</tspan><tspan
       x="37.514114"
       y="34.173294"
       class="I J"
       id="tspan58"
       style="stroke-width:1.06014">TA</tspan><tspan
       x="41.966682"
       y="34.173294"
       class="I J"
       id="tspan60"
       style="stroke-width:1.06014">TE</tspan><tspan
       x="47.69141"
       y="34.173294"
       class="I J"
       id="tspan62"
       style="stroke-width:1.06014">L</tspan><tspan
       x="50.023708"
       y="34.173294"
       class="I J"
       id="tspan64"
       style="stroke-width:1.06014">.</tspan><tspan
       x="51.083847"
       y="34.173294"
       class="I J"
       id="tspan66"
       style="stroke-width:1.06014">L</tspan><tspan
       x="53.416145"
       y="34.173294"
       class="I J"
       id="tspan68"
       style="stroke-width:1.06014">.</tspan><tspan
       x="54.370266"
       y="34.173294"
       class="I J"
       id="tspan70"
       style="stroke-width:1.06014">C</tspan></text>
  <path
     d="m 58.101025,37.101025 h -0.2 c 0,0 -0.1,0 -0.1,-0.1 v -4.8 c 0,0 0,-0.1 0.1,-0.1 h 0.2 c 0,0 0.1,0 0.1,0.1 l -0.1,4.9"
     id="path74" />
</svg>
