<?xml version="1.0" encoding="UTF-8"?><svg id="a" xmlns="http://www.w3.org/2000/svg" viewBox="0 0 370.78 154.78"><defs><style>.b{fill:#c10000;}.c{fill:#e5e5e5;}.d{fill:#212020;}.e{font-family:Dubai-Bold, Dubai;font-size:10.64px;}.f{font-family:JannaLT-Bold, Janna LT;font-size:11.68px;}</style></defs><g><g><path class="c" d="M128.69,42.26c.31-.2,.57-.45,.76-.76,.14,.65-.11,.91-.76,.76Z"/><path class="d" d="M72.26,55.36v45.59h-3.94V61.48c-.7,1.6-1.56,3.35-2.58,5.28l-13.73,26.1h-3.97l-13.52-26.1-.7-1.41c-.79-1.41-1.42-2.63-1.88-3.66v39.26h-3.94V55.36h4.57l13.93,26.6,.98,1.97c1.27,2.44,2.13,4.22,2.6,5.35,.42-.99,.95-2.12,1.58-3.41,.63-1.29,1.3-2.59,2.01-3.91l14.21-26.6h4.36Z"/><path class="d" d="M92.1,97.96c-3.05-1.99-5.37-4.77-6.97-8.34-1.6-3.56-2.39-7.69-2.39-12.38,0-5.25,.97-9.63,2.92-13.12,1.95-3.49,4.5-6.09,7.67-7.77,3.17-1.69,6.6-2.53,10.31-2.53,4.31,0,8,1,11.05,2.99,3.05,1.99,5.37,4.77,6.97,8.34,1.59,3.57,2.39,7.69,2.39,12.38,0,5.25-.96,9.64-2.88,13.16-1.92,3.52-4.47,6.11-7.63,7.77-3.17,1.67-6.63,2.5-10.38,2.5-4.32,0-8-1-11.05-2.99Zm20.32-2.95c2.54-1.71,4.45-4.07,5.75-7.07,1.29-3,1.94-6.45,1.94-10.34s-.61-7.45-1.83-10.52c-1.22-3.07-3.05-5.49-5.5-7.25-2.45-1.76-5.48-2.64-9.09-2.64s-6.71,.84-9.27,2.53c-2.56,1.69-4.49,4.05-5.78,7.07-1.29,3.03-1.94,6.49-1.94,10.38s.61,7.39,1.83,10.48c1.22,3.1,3.07,5.52,5.54,7.28,2.47,1.76,5.51,2.64,9.13,2.64s6.7-.86,9.24-2.57Z"/><path class="d" d="M126.9,50.53c1.01,.02,2.03,.06,3.04-.01,.77-.05,1.01,.13,1,.96-.03,17.17-.03,34.35,0,51.52,0,.13,0,.24-.02,.34h2.76c-.05-.43,.11-1,.05-1.46-.08-.66,.17-.8,.8-.8,6.09,.02,12.18,.02,18.27,.01,.35,0,.71,.04,1.06-.1,.67-.27,1.01-.78,.91-1.48-.09-.69-.52-1.13-1.25-1.21-.27-.03-.55-.01-.82-.01-5.65,0-11.3,0-16.95,0-2.01,0-1.98,0-2.02-1.97-.01-.67,.13-.86,.83-.86,6.31,.03,12.62,.02,18.93,.02,.64,0,1.3,.09,1.83-.81,.13-.23,.2-.5,.16-.77-.08-.66-.47-1.1-1.15-1.2-.3-.04-.6-.03-.9-.03-5.87,0-11.74,0-17.61,0-.65,0-1.51,.21-1.91-.12-.47-.39-.07-1.29-.17-1.96-.09-.64,.17-.75,.77-.75,6.53,.02,13.06,.01,19.59,.01,.44,0,.89,0,1.29-.16,.57-.23,.85-.85,.78-1.46-.08-.64-.46-1.03-1.13-1.15-.29-.05-.6-.04-.9-.04-6.2,0-12.4,0-18.6,0-1.79,0-1.74,0-1.81-1.78-.04-.87,.22-1.07,1.07-1.06,6.8,.04,13.61,.02,20.41,.02,1.1,0,1.76-.55,1.74-1.42-.02-.84-.65-1.36-1.7-1.39-.19,0-.38,0-.58,0-6.31,0-12.62,0-18.93,0-.64,0-1.5,.3-1.88-.14-.32-.37-.06-1.2-.12-1.83-.07-.69,.16-.86,.85-.85,6.39,.03,12.78,.02,19.17,.02,.58,0,1.15,.02,1.73,0,.85-.03,1.44-.6,1.45-1.37,.01-.76-.57-1.35-1.41-1.43-.24-.02-.49,0-.74,0-6.34,0-12.67,0-19.01,0-.65,0-1.51,.2-1.9-.13-.42-.35-.06-1.24-.14-1.88-.08-.64,.15-.81,.8-.81,6.39,.03,12.78,.02,19.17,.02,.44,0,.88,.03,1.32-.03,.56-.07,1.02-.5,1.12-1.05,.15-.8-.18-1.34-.9-1.63-.32-.13-.65-.09-.97-.09-6.17,0-12.34,0-18.52,0-.65,0-1.53,.29-1.89-.12-.33-.39-.07-1.25-.14-1.89-.08-.66,.18-.8,.81-.8,6.31,.02,12.62,.01,18.93,.01,.25,0,.5,.01,.74-.01,.72-.08,1.27-.69,1.27-1.39,0-.69-.55-1.3-1.27-1.39-.24-.03-.49-.01-.74-.01-5.9,0-11.8,0-17.69,0-.65,0-1.51,.21-1.9-.12-.41-.35-.06-1.23-.14-1.88-.07-.62,.11-.82,.78-.82,5.38,.03,10.75,.02,16.13,.02,.27,0,.55,.02,.82-.03,.72-.13,1.21-.77,1.15-1.48-.05-.69-.56-1.21-1.27-1.28-.24-.02-.49-.01-.74-.01-4.94,0-9.88,0-14.81,0-.65,0-1.52,.21-1.9-.12-.45-.39-.06-1.29-.16-1.96-.1-.66,.2-.74,.77-.74,4.5,.02,9,.01,13.5,.01,.65,0,1.31,.07,1.81-1.03,.06-.14,.1-.3,.08-.45-.06-.73-.46-1.2-1.19-1.3-.27-.04-.55-.02-.82-.02-4.47,0-8.94-.01-13.41,.01-.57,0-.83-.1-.74-.78,.06-.42,.06-.85,0-1.27-.07-.59,.02-.79,.6-.79,5.05,.02,10.1,.02,15.14,0,.49,0,.72,.19,.96,.57,1.05,1.7,2.05,3.43,2.95,5.21,2.96,5.88,4.92,12.05,5.44,18.63,.28,3.48,.17,6.96-.04,10.44-.32,5.12-.9,10.2-2.47,15.12-.28,.88,.05,1.63,.79,1.9,.8,.28,1.52-.1,1.86-1.01,.41-1.1,.7-2.24,.97-3.39,1.1-4.77,1.58-9.62,1.77-14.5,.17-4.25,.18-8.5-.53-12.72-1.17-6.99-3.7-13.48-7.29-19.57-.11-.19-.35-.36-.23-.67,.85,0,1.7,.03,2.55-.01,.51-.03,.78,.17,1.03,.59,2.39,3.9,4.09,8.09,5.33,12.48,2.84,10.1,2.36,20.3,.87,30.52-.32,2.18-.8,4.33-1.51,6.41-.4,1.17,.46,2.15,1.59,1.91,.73-.15,.98-.72,1.17-1.34,1.19-3.75,1.81-7.61,2.18-11.52,.6-6.37,.85-12.75-.02-19.12-.93-6.82-2.98-13.27-6.31-19.31-.1-.18-.3-.33-.21-.61,1.06,0,2.13,0,3.2,0,.85,0,1.7,.03,2.55-.03,.73-.05,1.22-.48,1.31-1.24,.08-.68-.23-1.19-.85-1.44-.32-.12-.7-.11-1.05-.11-4.31,0-8.61-.02-12.92,0-.61,0-.98-.16-1.34-.68-4.46-6.48-9.77-12.19-15.95-17.06-1.17-.92-1.79-1.81-1.57-3.32,.13-.94,.06-1.92,0-2.88-.04-.84-.69-1.4-1.45-1.37-.75,.03-1.28,.57-1.33,1.39-.02,.27,0,.55,0,.82,0,7.43,0,14.87,.01,22.3,0,.6-.13,.82-.76,.79-1.09-.05-2.19-.03-3.29-.01-.99,.02-1.58,.55-1.57,1.4,0,.84,.6,1.38,1.59,1.4Zm6.84-18.21c5.5,4.58,10.26,9.6,14.35,15.27-.26,.22-.52,.13-.74,.13-4.25,0-8.49-.02-12.74,.03-.76,0-.89-.22-.88-.91,.03-4.77,.02-9.53,.02-14.51Z"/><g><g><path class="b" d="M185.29,72.91h-10.28c-.1,.94-.17,1.91-.21,2.91h10.26c.03-1.03,.11-2,.23-2.91Z"/><path class="b" d="M185.08,78.52h-10.3c.02,.97,.08,1.92,.17,2.84h10.43c-.14-.9-.25-1.84-.3-2.84Z"/><path class="b" d="M175.41,70.22h10.4c.28-1.04,.63-1.99,1.05-2.84h-10.74c-.28,.9-.52,1.84-.71,2.84Z"/><path class="b" d="M195.1,61.8h-16.34c-.36,.54-.71,1.09-1.03,1.68-.19,.34-.35,.7-.52,1.05h11.71c1.58-1.53,3.64-2.44,6.19-2.74Z"/><path class="b" d="M211.63,57.54c-2.39-1.41-4.78-2.45-7.18-3.13-2.39-.68-5.02-1.02-7.88-1.02-4.08,0-7.75,.79-11.01,2.36-1.67,.81-3.17,1.88-4.5,3.22h29.85l.72-1.42Z"/><path class="b" d="M199.02,61.8c2.9,.29,5.64,1.2,8.22,2.74h.85l1.39-2.74h-10.46Z"/><path class="b" d="M196.99,61.69c-.66,0-1.29,.04-1.9,.11h3.92c-.67-.07-1.34-.11-2.02-.11Z"/><path class="b" d="M187.28,86.92c-.48-.83-.89-1.73-1.22-2.72h-10.69c.18,.94,.41,1.85,.67,2.72h11.23Z"/><path class="b" d="M196.86,100.95c2.72,0,5.29-.39,7.7-1.16,2.42-.77,4.89-1.91,7.42-3.41l-.53-.96h-30.62c3.56,3.69,8.9,5.53,16.03,5.53Z"/><path class="b" d="M208.4,89.88h-1.28c-1.35,.72-2.65,1.31-3.9,1.74-1.56,.54-3.37,.81-5.45,.81-3.26,0-5.91-.86-7.98-2.55h-12.65c.43,.95,.93,1.84,1.47,2.7h31.27l-1.49-2.7Z"/></g><g><polygon class="b" points="327.02 81.04 315.48 81.04 316.31 78.52 306.34 78.52 305.31 81.36 337.41 81.36 336.37 78.52 326.17 78.52 327.02 81.04"/><polygon class="b" points="317.19 75.82 318.15 72.91 308.38 72.91 307.32 75.82 317.19 75.82"/><polygon class="b" points="325.27 75.82 335.39 75.82 334.33 72.91 324.29 72.91 325.27 75.82"/><polygon class="b" points="310.4 67.38 309.36 70.22 319.03 70.22 323.38 70.22 333.35 70.22 332.32 67.38 310.4 67.38"/><polygon class="b" points="312.43 61.8 311.43 64.54 331.29 64.54 330.29 61.8 312.43 61.8"/><polygon class="b" points="327.58 54.37 315.13 54.37 313.46 58.96 329.26 58.96 327.58 54.37"/><polygon class="b" points="298.74 99.4 298.74 99.97 309.22 99.97 310.72 95.42 300.19 95.42 298.74 99.4"/><polygon class="b" points="312.54 89.88 302.2 89.88 301.22 92.58 311.65 92.58 312.54 89.88"/><polygon class="b" points="341.49 92.58 340.51 89.88 329.97 89.88 330.88 92.58 341.49 92.58"/><polygon class="b" points="333.35 99.97 343.98 99.97 343.98 99.4 342.53 95.42 331.83 95.42 333.35 99.97"/><polygon class="b" points="338.44 84.2 304.27 84.2 303.28 86.92 339.43 86.92 338.44 84.2"/><polygon class="b" points="329.7 89.06 312.81 89.06 312.54 89.88 329.97 89.88 329.7 89.06"/></g><g><polygon class="b" points="232.13 75.82 233.09 72.91 223.32 72.91 222.26 75.82 232.13 75.82"/><polygon class="b" points="241.11 78.52 241.96 81.04 230.42 81.04 231.25 78.52 221.28 78.52 220.24 81.36 252.34 81.36 251.31 78.52 241.11 78.52"/><polygon class="b" points="250.33 75.82 249.27 72.91 239.23 72.91 240.21 75.82 250.33 75.82"/><polygon class="b" points="225.33 67.38 224.3 70.22 233.97 70.22 238.32 70.22 248.29 70.22 247.26 67.38 225.33 67.38"/><polygon class="b" points="242.52 54.37 230.07 54.37 228.4 58.96 244.19 58.96 242.52 54.37"/><polygon class="b" points="227.36 61.8 226.37 64.54 246.22 64.54 245.23 61.8 227.36 61.8"/><polygon class="b" points="253.38 84.2 219.21 84.2 218.22 86.92 254.37 86.92 253.38 84.2"/><polygon class="b" points="213.67 99.4 213.67 99.97 224.16 99.97 225.65 95.42 215.13 95.42 213.67 99.4"/><polygon class="b" points="227.47 89.88 217.14 89.88 216.16 92.58 226.59 92.58 227.47 89.88"/><polygon class="b" points="248.29 99.97 258.91 99.97 258.91 99.4 257.46 95.42 246.76 95.42 248.29 99.97"/><polygon class="b" points="256.43 92.58 255.45 89.88 244.91 89.88 245.81 92.58 256.43 92.58"/><polygon class="b" points="244.63 89.06 227.75 89.06 227.47 89.88 244.91 89.88 244.63 89.06"/></g><g><path class="b" d="M267.37,75.82h22.95c-.08-.04-.15-.09-.23-.13-1.63-.87-3.71-1.8-6.24-2.78h-19.35c.78,1.11,1.74,2.08,2.87,2.91Z"/><path class="b" d="M293.64,78.52h-21.34c1.06,.48,2.23,.97,3.5,1.47l1.62,.63c.65,.26,1.26,.5,1.82,.74h16.31c-.23-.51-.5-.99-.81-1.44-.34-.5-.71-.96-1.1-1.4Z"/><path class="b" d="M274.56,62.68c.61-.4,1.37-.69,2.28-.87h-13.53c-.33,.85-.54,1.76-.65,2.74h10.37c.25-.74,.75-1.36,1.52-1.86Z"/><path class="b" d="M263.16,70.22h13.86c-.35-.16-.67-.32-.95-.47-1.21-.63-2.05-1.27-2.52-1.9-.11-.15-.21-.31-.29-.47h-10.62c.08,1.02,.26,1.97,.53,2.84Z"/><path class="b" d="M282.64,61.8c.89,.15,1.75,.37,2.58,.66,1.33,.47,2.81,1.16,4.43,2.07h2.09l1.8-2.74h-10.91Z"/><path class="b" d="M295.71,58.53c-2.53-1.69-5.2-2.97-7.99-3.83-2.79-.87-5.5-1.3-8.13-1.3-2.91,0-5.65,.45-8.23,1.34-2.58,.89-4.69,2.29-6.33,4.19-.01,.02-.03,.04-.04,.05h30.43l.29-.44Z"/><path class="b" d="M279.63,61.55c-1.05,0-1.98,.09-2.79,.25h5.8c-.97-.17-1.97-.25-3.01-.25Z"/><path class="b" d="M285.62,85.02c.38,.53,.61,1.17,.7,1.91h10.31c0-.97-.08-1.88-.23-2.72h-11.57c.32,.27,.59,.54,.79,.82Z"/><path class="b" d="M267.36,89.88h-3.29l-1.74,2.7h13.9c-2.91-.24-5.87-1.13-8.87-2.7Z"/><path class="b" d="M260.46,95.46c4.93,3.66,10.91,5.49,17.94,5.49,3.47,0,6.58-.52,9.32-1.55,2.43-.91,4.41-2.24,5.94-3.99h-33.17l-.03,.05Z"/><path class="b" d="M296.36,89.88h-10.63c-.38,.59-.93,1.1-1.66,1.5-1.17,.65-2.69,1.05-4.55,1.2h15.99c.38-.84,.66-1.74,.85-2.7Z"/><path class="b" d="M279.52,92.58h-3.29c.51,.04,1.03,.07,1.54,.07,.61,0,1.19-.02,1.75-.07Z"/></g></g></g><rect class="d" x="21.95" y="103.52" width="325.52" height="3.04" rx=".22" ry=".22"/></g><g><text class="f" transform="translate(188.75 118.75)"><tspan x="0" y="0">م.م.ذ تاراقعلل اساكدوم</tspan></text><text class="e" transform="translate(27.21 120.78) scale(.9 1)"><tspan x="0" y="0">MODCASA REAL ESTATE L.L.C</tspan></text><rect x="178.96" y="110.82" width=".92" height="13.6" rx=".07" ry=".07"/></g></svg>