<?xml version="1.0" encoding="UTF-8" standalone="no"?>
<!-- Generator: Adobe Illustrator 22.0.0, SVG Export Plug-In . SVG Version: 6.00 Build 0)  -->

<svg
   version="1.1"
   id="Layer_1"
   x="0px"
   y="0px"
   viewBox="0 0 120 37.200001"
   xml:space="preserve"
   sodipodi:docname="945e576b8dc62389f31dbc1d3a836153.svg"
   width="120"
   height="37.200001"
   xmlns:inkscape="http://www.inkscape.org/namespaces/inkscape"
   xmlns:sodipodi="http://sodipodi.sourceforge.net/DTD/sodipodi-0.dtd"
   xmlns="http://www.w3.org/2000/svg"
   xmlns:svg="http://www.w3.org/2000/svg"><defs
   id="defs165" /><sodipodi:namedview
   id="namedview163"
   pagecolor="#ffffff"
   bordercolor="#666666"
   borderopacity="1.0"
   inkscape:pageshadow="2"
   inkscape:pageopacity="0.0"
   inkscape:pagecheckerboard="0" />
<style
   type="text/css"
   id="style2">
	.st0{fill:#FFFFFF;}
	.st1{font-family:'JannaLT-Bold';}
	.st2{font-size:4.2351px;}
	.st3{letter-spacing:2;}
	.st4{font-family:'Dubai-Bold';}
	.st5{font-size:3.4888px;}
</style>
<g
   id="g160"
   transform="translate(0,-0.2)">
	<g
   id="g156">
		<path
   class="st0"
   d="m 39.3,7.3 c 0.1,-0.1 0.2,-0.2 0.3,-0.3 0.1,0.2 0,0.3 -0.3,0.3"
   id="path4" />
		<path
   class="st0"
   d="M 18.5,12.1 V 28.8 H 17 V 14.3 c -0.3,0.6 -0.6,1.2 -1,1.9 l -5.1,9.6 H 9.6 L 4.6,16.2 4.3,15.7 C 4,15.2 3.8,14.7 3.6,14.4 V 28.8 H 2.2 V 12.1 h 1.7 l 5.1,9.7 0.4,0.7 c 0.5,0.9 0.8,1.5 1,2 0.2,-0.4 0.3,-0.8 0.6,-1.3 0.2,-0.5 0.5,-0.9 0.7,-1.4 l 5.2,-9.7 z"
   id="path6" />
		<path
   class="st0"
   d="m 25.9,27.7 c -1.1,-0.7 -2,-1.7 -2.6,-3.1 -0.6,-1.3 -0.9,-2.8 -0.9,-4.5 0,-1.9 0.4,-3.5 1.1,-4.8 0.7,-1.3 1.7,-2.2 2.8,-2.8 1.2,-0.6 2.4,-0.9 3.8,-0.9 1.6,0 2.9,0.4 4.1,1.1 1.1,0.7 2,1.7 2.6,3.1 0.6,1.3 0.9,2.8 0.9,4.5 0,1.9 -0.4,3.5 -1.1,4.8 -0.7,1.3 -1.6,2.2 -2.8,2.8 -1.2,0.6 -2.4,0.9 -3.8,0.9 -1.7,0 -3,-0.4 -4.1,-1.1 m 7.5,-1.1 C 34.3,26 35,25.1 35.5,24 c 0.5,-1.1 0.7,-2.4 0.7,-3.8 0,-1.4 -0.2,-2.7 -0.7,-3.9 -0.5,-1.1 -1.1,-2 -2,-2.7 -0.9,-0.6 -2,-1 -3.4,-1 -1.3,0 -2.5,0.3 -3.4,0.9 -0.9,0.6 -1.7,1.5 -2.1,2.6 -0.5,1.1 -0.7,2.4 -0.7,3.8 0,1.4 0.2,2.7 0.7,3.8 0.5,1.1 1.1,2 2,2.7 0.9,0.6 2,1 3.4,1 1.3,0.1 2.4,-0.2 3.4,-0.8"
   id="path8" />
		<path
   class="st0"
   d="m 38.7,10.3 c 0.4,0 0.7,0 1.1,0 0.3,0 0.4,0 0.4,0.4 0,6.3 0,12.6 0,18.9 0,0 0,0.1 0,0.1 h 1 c 0,-0.2 0,-0.4 0,-0.5 0,-0.2 0.1,-0.3 0.3,-0.3 2.2,0 4.5,0 6.7,0 0.1,0 0.3,0 0.4,0 0.2,-0.1 0.4,-0.3 0.3,-0.5 0,-0.3 -0.2,-0.4 -0.5,-0.4 -0.1,0 -0.2,0 -0.3,0 -2.1,0 -4.2,0 -6.2,0 -0.7,0 -0.7,0 -0.7,-0.7 0,-0.2 0,-0.3 0.3,-0.3 2.3,0 4.7,0 7,0 0.2,0 0.5,0 0.7,-0.3 0,-0.1 0.1,-0.2 0.1,-0.3 0,-0.2 -0.2,-0.4 -0.4,-0.4 -0.1,0 -0.2,0 -0.3,0 -2.2,0 -4.3,0 -6.5,0 -0.2,0 -0.6,0.1 -0.7,0 -0.2,-0.1 0,-0.5 -0.1,-0.7 0,-0.2 0.1,-0.3 0.3,-0.3 2.4,0 4.8,0 7.2,0 0.2,0 0.3,0 0.5,-0.1 0.2,-0.1 0.3,-0.3 0.3,-0.5 0,-0.2 -0.2,-0.4 -0.4,-0.4 -0.1,0 -0.2,0 -0.3,0 -2.3,0 -4.6,0 -6.9,0 -0.7,0 -0.6,0 -0.7,-0.7 0,-0.3 0.1,-0.4 0.4,-0.4 2.5,0 5,0 7.5,0 0.4,0 0.6,-0.2 0.6,-0.5 0,-0.3 -0.2,-0.5 -0.6,-0.5 -0.1,0 -0.1,0 -0.2,0 -2.3,0 -4.7,0 -7,0 -0.2,0 -0.6,0.1 -0.7,-0.1 -0.1,-0.1 0,-0.4 0,-0.7 0,-0.3 0.1,-0.3 0.3,-0.3 2.4,0 4.7,0 7.1,0 0.2,0 0.4,0 0.6,0 0.3,0 0.5,-0.2 0.5,-0.5 0,-0.3 -0.2,-0.5 -0.5,-0.5 -0.1,0 -0.2,0 -0.3,0 -2.3,0 -4.7,0 -7,0 -0.2,0 -0.6,0.1 -0.7,0 -0.2,-0.1 0,-0.5 -0.1,-0.7 0,-0.2 0.1,-0.3 0.3,-0.3 2.4,0 4.7,0 7.1,0 0.2,0 0.3,0 0.5,0 0.2,0 0.4,-0.2 0.4,-0.4 0.1,-0.3 -0.1,-0.5 -0.3,-0.6 -0.1,0 -0.2,0 -0.4,0 -2.3,0 -4.6,0 -6.8,0 -0.2,0 -0.6,0.1 -0.7,0 -0.1,-0.1 0,-0.5 -0.1,-0.7 0,-0.2 0.1,-0.3 0.3,-0.3 2.3,0 4.7,0 7,0 0.1,0 0.2,0 0.3,0 0.3,0 0.5,-0.3 0.5,-0.5 0,-0.3 -0.2,-0.5 -0.5,-0.5 -0.1,0 -0.2,0 -0.3,0 -2.2,0 -4.3,0 -6.5,0 -0.2,0 -0.6,0.1 -0.7,0 -0.2,-0.1 0,-0.5 -0.1,-0.7 0,-0.2 0,-0.3 0.3,-0.3 2,0 4,0 5.9,0 0.1,0 0.2,0 0.3,0 0.3,0 0.4,-0.3 0.4,-0.5 0,-0.3 -0.2,-0.4 -0.5,-0.5 -0.1,0 -0.2,0 -0.3,0 -1.8,0 -3.6,0 -5.5,0 -0.2,0 -0.6,0.1 -0.7,0 -0.2,-0.1 0,-0.5 -0.1,-0.7 0,-0.2 0.1,-0.3 0.3,-0.3 1.7,0 3.3,0 5,0 0.2,0 0.5,0 0.7,-0.4 0,-0.1 0,-0.1 0,-0.2 0,-0.3 -0.2,-0.4 -0.4,-0.5 -0.1,0 -0.2,0 -0.3,0 -1.6,0 -3.3,0 -4.9,0 -0.2,0 -0.3,0 -0.3,-0.3 0,-0.2 0,-0.3 0,-0.5 0,-0.2 0,-0.3 0.2,-0.3 1.9,0 3.7,0 5.6,0 0.2,0 0.3,0.1 0.4,0.2 0.4,0.6 0.8,1.3 1.1,1.9 1.1,2.2 1.8,4.4 2,6.8 0.1,1.3 0.1,2.6 0,3.8 -0.1,1.9 -0.3,3.7 -0.9,5.5 -0.1,0.3 0,0.6 0.3,0.7 0.3,0.1 0.6,0 0.7,-0.4 0.2,-0.4 0.3,-0.8 0.4,-1.2 0.4,-1.7 0.6,-3.5 0.7,-5.3 C 51.7,21 51.7,19.5 51.4,17.9 51,15.3 50,13 48.7,10.7 c 0,-0.1 -0.1,-0.1 -0.1,-0.2 0.3,0 0.6,0 0.9,0 0.2,0 0.3,0.1 0.4,0.2 0.9,1.4 1.5,3 2,4.6 1,3.7 0.9,7.4 0.3,11.2 -0.1,0.8 -0.3,1.6 -0.6,2.3 -0.1,0.4 0.2,0.8 0.6,0.7 0.3,-0.1 0.4,-0.3 0.4,-0.5 0.4,-1.4 0.7,-2.8 0.8,-4.2 0.2,-2.3 0.3,-4.7 0,-7 -0.3,-2.5 -1.1,-4.9 -2.3,-7.1 0,-0.1 -0.1,-0.1 -0.1,-0.2 0.4,0 0.8,0 1.2,0 0.3,0 0.6,0 0.9,0 0.3,0 0.4,-0.2 0.5,-0.5 0,-0.2 -0.1,-0.4 -0.3,-0.5 -0.1,0 -0.3,0 -0.4,0 -1.6,0 -3.2,0 -4.8,0 C 47.9,9.5 47.7,9.4 47.6,9.3 46,6.9 44,4.8 41.7,3 41.3,2.7 41,2.3 41.1,1.8 c 0,-0.3 0,-0.7 0,-1.1 0,-0.3 -0.3,-0.5 -0.5,-0.5 -0.3,0 -0.5,0.2 -0.5,0.5 0,0.1 0,0.2 0,0.3 0,2.7 0,5.4 0,8.2 0,0.2 0,0.3 -0.3,0.3 -0.4,0 -0.8,0 -1.2,0 -0.4,0 -0.6,0.2 -0.6,0.5 0.1,0.1 0.3,0.3 0.7,0.3 m 2.5,-6.7 c 2,1.7 3.8,3.5 5.3,5.6 -0.1,0.1 -0.2,0 -0.3,0 -1.6,0 -3.1,0 -4.7,0 -0.3,0 -0.3,-0.1 -0.3,-0.3 0,-1.7 0,-3.5 0,-5.3"
   id="path10" />
		<path
   class="st0"
   d="m 60.2,18.5 h -3.8 c 0,0.3 -0.1,0.7 -0.1,1.1 h 3.8 c 0,-0.4 0.1,-0.8 0.1,-1.1"
   id="path12" />
		<path
   class="st0"
   d="m 60.1,20.5 h -3.8 c 0,0.4 0,0.7 0.1,1 h 3.8 c 0,-0.2 0,-0.6 -0.1,-1"
   id="path14" />
		<path
   class="st0"
   d="m 56.6,17.5 h 3.8 c 0.1,-0.4 0.2,-0.7 0.4,-1 h -4 c -0.1,0.3 -0.2,0.6 -0.2,1"
   id="path16" />
		<path
   class="st0"
   d="m 63.8,14.4 h -6 c -0.1,0.2 -0.3,0.4 -0.4,0.6 -0.1,0.1 -0.1,0.3 -0.2,0.4 h 4.3 c 0.6,-0.5 1.4,-0.9 2.3,-1"
   id="path18" />
		<path
   class="st0"
   d="M 69.9,12.9 C 69,12.4 68.1,12 67.3,11.8 c -0.9,-0.2 -1.9,-0.4 -2.9,-0.4 -1.5,0 -2.9,0.3 -4.1,0.9 -0.6,0.3 -1.2,0.7 -1.7,1.2 h 11 z"
   id="path20" />
		<path
   class="st0"
   d="m 65.3,14.4 c 1.1,0.1 2.1,0.4 3,1 h 0.3 l 0.5,-1 z"
   id="path22" />
		<path
   class="st0"
   d="m 64.5,14.4 c -0.2,0 -0.5,0 -0.7,0 h 1.4 c -0.2,0 -0.4,0 -0.7,0"
   id="path24" />
		<path
   class="st0"
   d="m 60.9,23.6 c -0.2,-0.3 -0.3,-0.6 -0.4,-1 h -3.9 c 0.1,0.3 0.2,0.7 0.2,1 z"
   id="path26" />
		<path
   class="st0"
   d="m 64.5,28.8 c 1,0 1.9,-0.1 2.8,-0.4 0.9,-0.3 1.8,-0.7 2.7,-1.3 L 69.8,26.7 H 58.6 c 1.3,1.4 3.3,2.1 5.9,2.1"
   id="path28" />
		<path
   class="st0"
   d="m 68.7,24.7 h -0.5 c -0.5,0.3 -1,0.5 -1.4,0.6 -0.6,0.2 -1.2,0.3 -2,0.3 -1.2,0 -2.2,-0.3 -2.9,-0.9 h -4.7 c 0.2,0.3 0.3,0.7 0.5,1 h 11.5 z"
   id="path30" />
		<polygon
   class="st0"
   points="108.5,20.5 104.8,20.5 104.5,21.6 116.3,21.6 115.9,20.5 112.1,20.5 112.5,21.5 108.2,21.5 "
   id="polygon32" />
		<polygon
   class="st0"
   points="105.6,18.5 105.2,19.6 108.8,19.6 109.2,18.5 "
   id="polygon34" />
		<polygon
   class="st0"
   points="115.2,18.5 111.5,18.5 111.8,19.6 115.5,19.6 "
   id="polygon36" />
		<polygon
   class="st0"
   points="109.5,17.5 111.1,17.5 114.8,17.5 114.4,16.5 106.3,16.5 106,17.5 "
   id="polygon38" />
		<polygon
   class="st0"
   points="114,15.4 113.7,14.4 107.1,14.4 106.7,15.4 "
   id="polygon40" />
		<polygon
   class="st0"
   points="107.5,13.4 113.3,13.4 112.7,11.7 108.1,11.7 "
   id="polygon42" />
		<polygon
   class="st0"
   points="105.9,28.4 106.5,26.7 102.6,26.7 102,28.2 102,28.4 "
   id="polygon44" />
		<polygon
   class="st0"
   points="103,25.7 106.8,25.7 107.1,24.7 103.3,24.7 "
   id="polygon46" />
		<polygon
   class="st0"
   points="113.5,24.7 113.9,25.7 117.8,25.7 117.4,24.7 "
   id="polygon48" />
		<polygon
   class="st0"
   points="118.7,28.2 118.2,26.7 114.2,26.7 114.8,28.4 118.7,28.4 "
   id="polygon50" />
		<polygon
   class="st0"
   points="103.7,23.6 117,23.6 116.7,22.6 104.1,22.6 "
   id="polygon52" />
		<polygon
   class="st0"
   points="107.1,24.7 113.5,24.7 113.4,24.4 107.2,24.4 "
   id="polygon54" />
		<polygon
   class="st0"
   points="74.2,18.5 73.8,19.6 77.5,19.6 77.8,18.5 "
   id="polygon56" />
		<polygon
   class="st0"
   points="76.9,21.5 77.2,20.5 73.5,20.5 73.1,21.6 84.9,21.6 84.6,20.5 80.8,20.5 81.1,21.5 "
   id="polygon58" />
		<polygon
   class="st0"
   points="80.1,18.5 80.5,19.6 84.2,19.6 83.8,18.5 "
   id="polygon60" />
		<polygon
   class="st0"
   points="78.2,17.5 79.8,17.5 83.4,17.5 83.1,16.5 75,16.5 74.6,17.5 "
   id="polygon62" />
		<polygon
   class="st0"
   points="76.1,13.4 81.9,13.4 81.3,11.7 76.7,11.7 "
   id="polygon64" />
		<polygon
   class="st0"
   points="82.7,15.4 82.3,14.4 75.7,14.4 75.4,15.4 "
   id="polygon66" />
		<polygon
   class="st0"
   points="72.4,23.6 85.7,23.6 85.3,22.6 72.7,22.6 "
   id="polygon68" />
		<polygon
   class="st0"
   points="74.5,28.4 75.1,26.7 71.2,26.7 70.7,28.2 70.7,28.4 "
   id="polygon70" />
		<polygon
   class="st0"
   points="71.6,25.7 75.4,25.7 75.8,24.7 72,24.7 "
   id="polygon72" />
		<polygon
   class="st0"
   points="87.4,28.2 86.8,26.7 82.9,26.7 83.4,28.4 87.4,28.4 "
   id="polygon74" />
		<polygon
   class="st0"
   points="82.2,24.7 82.5,25.7 86.4,25.7 86.1,24.7 "
   id="polygon76" />
		<polygon
   class="st0"
   points="75.8,24.7 82.2,24.7 82.1,24.4 75.9,24.4 "
   id="polygon78" />
		<path
   class="st0"
   d="M 90.5,19.6 H 99 c 0,0 -0.1,0 -0.1,0 -0.6,-0.3 -1.4,-0.7 -2.3,-1 h -7.1 c 0.2,0.3 0.6,0.7 1,1"
   id="path80" />
		<path
   class="st0"
   d="m 100.2,20.5 h -7.9 c 0.4,0.2 0.8,0.4 1.3,0.5 l 0.6,0.2 c 0.2,0.1 0.5,0.2 0.7,0.3 h 6 c -0.1,-0.2 -0.2,-0.4 -0.3,-0.5 -0.2,-0.1 -0.3,-0.3 -0.4,-0.5"
   id="path82" />
		<path
   class="st0"
   d="m 93.1,14.7 c 0.2,-0.1 0.5,-0.3 0.8,-0.3 h -5 c -0.1,0.3 -0.2,0.6 -0.2,1 h 3.8 c 0.2,-0.2 0.3,-0.5 0.6,-0.7"
   id="path84" />
		<path
   class="st0"
   d="M 88.9,17.5 H 94 c -0.1,-0.1 -0.2,-0.1 -0.4,-0.2 -0.4,-0.2 -0.8,-0.5 -0.9,-0.7 0,-0.1 -0.1,-0.1 -0.1,-0.2 h -3.9 c 0.1,0.4 0.1,0.8 0.2,1.1"
   id="path86" />
		<path
   class="st0"
   d="m 96.1,14.4 c 0.3,0.1 0.6,0.1 1,0.2 0.5,0.2 1,0.4 1.6,0.8 h 0.8 l 0.7,-1 z"
   id="path88" />
		<path
   class="st0"
   d="M 100.9,13.2 C 100,12.6 99,12.1 98,11.8 c -1,-0.3 -2,-0.5 -3,-0.5 -1.1,0 -2.1,0.2 -3,0.5 -1,0.3 -1.7,0.8 -2.3,1.5 0,0 0,0 0,0 h 11.2 z"
   id="path90" />
		<path
   class="st0"
   d="m 95,14.3 c -0.4,0 -0.7,0 -1,0.1 h 2.1 c -0.4,0 -0.7,-0.1 -1.1,-0.1"
   id="path92" />
		<path
   class="st0"
   d="m 97.2,22.9 c 0.1,0.2 0.2,0.4 0.3,0.7 h 3.8 c 0,-0.4 0,-0.7 -0.1,-1 h -4.3 c 0.1,0.1 0.2,0.2 0.3,0.3"
   id="path94" />
		<path
   class="st0"
   d="m 90.5,24.7 h -1.2 l -0.6,1 h 5.1 c -1.1,-0.1 -2.2,-0.4 -3.3,-1"
   id="path96" />
		<path
   class="st0"
   d="m 87.9,26.8 c 1.8,1.3 4,2 6.6,2 1.3,0 2.4,-0.2 3.4,-0.6 0.9,-0.3 1.6,-0.8 2.2,-1.5 z"
   id="path98" />
		<path
   class="st0"
   d="m 101.2,24.7 h -3.9 c -0.1,0.2 -0.3,0.4 -0.6,0.5 -0.4,0.2 -1,0.4 -1.7,0.4 h 5.9 c 0.1,-0.2 0.2,-0.5 0.3,-0.9"
   id="path100" />
		<path
   class="st0"
   d="m 94.9,25.7 h -1.2 c 0.2,0 0.4,0 0.6,0 0.2,0 0.4,0 0.6,0"
   id="path102" />
		<path
   class="st0"
   d="M 119.5,30.8 H 0.5 C 0.2,30.8 0,30.6 0,30.3 v -0.1 c 0,-0.3 0.2,-0.5 0.5,-0.5 h 119 c 0.3,0 0.5,0.2 0.5,0.5 v 0.1 c 0,0.3 -0.2,0.5 -0.5,0.5"
   id="path104" />
		<text
   transform="matrix(1.017,0,0,1,61.4889,35.1133)"
   id="text128"><tspan
     x="0"
     y="0"
     class="st0 st1 st2"
     id="tspan106">م.م.</tspan><tspan
     x="10.9"
     y="0"
     class="st0 st1 st2 st3"
     id="tspan108">ذ</tspan><tspan
     x="15.8"
     y="0"
     class="st0 st1 st2"
     id="tspan110"> تار</tspan><tspan
     x="25.4"
     y="0"
     class="st0 st1 st2"
     id="tspan112">ﺎﻘﻌﻠ</tspan><tspan
     x="32.900002"
     y="0"
     class="st0 st1 st2 st3"
     id="tspan114">ﻟ</tspan><tspan
     x="37.099998"
     y="0"
     class="st0 st1 st2"
     id="tspan116"> </tspan><tspan
     x="38.799999"
     y="0"
     class="st0 st1 st2"
     id="tspan118">ﺎ</tspan><tspan
     x="39.799999"
     y="0"
     class="st0 st1 st2"
     id="tspan120">ﺳ</tspan><tspan
     x="44.400002"
     y="0"
     class="st0 st1 st2"
     id="tspan122">ﺎ</tspan><tspan
     x="45.5"
     y="0"
     class="st0 st1 st2"
     id="tspan124">ﻛد</tspan><tspan
     x="50.900002"
     y="0"
     class="st0 st1 st2"
     id="tspan126">ﻮﻣ</tspan></text>
		<text
   transform="matrix(1.017,0,0,1.1051,1.9391,35.8448)"
   id="text154"><tspan
     x="0"
     y="0"
     class="st0 st4 st5"
     id="tspan130">MODC</tspan><tspan
     x="10.8"
     y="0"
     class="st0 st4 st5"
     id="tspan132">A</tspan><tspan
     x="13.3"
     y="0"
     class="st0 st4 st5"
     id="tspan134">S</tspan><tspan
     x="15.5"
     y="0"
     class="st0 st4 st5"
     id="tspan136">A REAL E</tspan><tspan
     x="31.4"
     y="0"
     class="st0 st4 st5"
     id="tspan138">S</tspan><tspan
     x="33.5"
     y="0"
     class="st0 st4 st5"
     id="tspan140">TA</tspan><tspan
     x="37.700001"
     y="0"
     class="st0 st4 st5"
     id="tspan142">TE </tspan><tspan
     x="43.099998"
     y="0"
     class="st0 st4 st5"
     id="tspan144">L</tspan><tspan
     x="45.299999"
     y="0"
     class="st0 st4 st5"
     id="tspan146">.</tspan><tspan
     x="46.299999"
     y="0"
     class="st0 st4 st5"
     id="tspan148">L</tspan><tspan
     x="48.5"
     y="0"
     class="st0 st4 st5"
     id="tspan150">.</tspan><tspan
     x="49.400002"
     y="0"
     class="st0 st4 st5"
     id="tspan152">C</tspan></text>
	</g>
	<path
   class="st0"
   d="M 58.1,37.4 H 58 c 0,0 -0.1,0 -0.1,-0.1 v -4.8 c 0,0 0,-0.1 0.1,-0.1 h 0.2 c 0,0 0.1,0 0.1,0.1 l -0.2,4.9 c 0.1,-0.1 0.1,0 0,0"
   id="path158" />
</g>
</svg>
