<svg xmlns="http://www.w3.org/2000/svg" viewBox="0 0 370.78 154.78" xmlns:v="https://vecta.io/nano"><path d="M128.69 42.26c.31-.2.57-.45.76-.76.14.65-.11.91-.76.76z" fill="#e5e5e5"/><path d="M72.26 55.36v45.59h-3.94V61.48l-2.58 5.28-13.73 26.1h-3.97l-13.52-26.1-.7-1.41-1.88-3.66v39.26H28V55.36h4.57l13.93 26.6.98 1.97 2.6 5.35 1.58-3.41 2.01-3.91 14.21-26.6h4.36zm19.84 42.6c-3.05-1.99-5.37-4.77-6.97-8.34-1.6-3.56-2.39-7.69-2.39-12.38 0-5.25.97-9.63 2.92-13.12s4.5-6.09 7.67-7.77c3.17-1.69 6.6-2.53 10.31-2.53 4.31 0 8 1 11.05 2.99s5.37 4.77 6.97 8.34c1.59 3.57 2.39 7.69 2.39 12.38 0 5.25-.96 9.64-2.88 13.16s-4.47 6.11-7.63 7.77c-3.17 1.67-6.63 2.5-10.38 2.5-4.32 0-8-1-11.05-2.99zm20.32-2.95c2.54-1.71 4.45-4.07 5.75-7.07 1.29-3 1.94-6.45 1.94-10.34s-.61-7.45-1.83-10.52-3.05-5.49-5.5-7.25-5.48-2.64-9.09-2.64-6.71.84-9.27 2.53-4.49 4.05-5.78 7.07c-1.29 3.03-1.94 6.49-1.94 10.38s.61 7.39 1.83 10.48c1.22 3.1 3.07 5.52 5.54 7.28s5.51 2.64 9.13 2.64 6.7-.86 9.24-2.57zm14.48-44.48l3.04-.01c.77-.05 1.01.13 1 .96V103c0 .13 0 .24-.02.34h2.76c-.05-.43.11-1 .05-1.46-.08-.66.17-.8.8-.8l18.27.01c.35 0 .71.04 1.06-.1.67-.27 1.01-.78.91-1.48-.09-.69-.52-1.13-1.25-1.21-.27-.03-.55-.01-.82-.01h-16.95c-2.01 0-1.98 0-2.02-1.97-.01-.67.13-.86.83-.86l18.93.02c.64 0 1.3.09 1.83-.81.13-.23.2-.5.16-.77-.08-.66-.47-1.1-1.15-1.2-.3-.04-.6-.03-.9-.03h-17.61c-.65 0-1.51.21-1.91-.12-.47-.39-.07-1.29-.17-1.96-.09-.64.17-.75.77-.75l19.59.01c.44 0 .89 0 1.29-.16.57-.23.85-.85.78-1.46-.08-.64-.46-1.03-1.13-1.15-.29-.05-.6-.04-.9-.04h-18.6c-1.79 0-1.74 0-1.81-1.78-.04-.87.22-1.07 1.07-1.06l20.41.02c1.1 0 1.76-.55 1.74-1.42-.02-.84-.65-1.36-1.7-1.39h-.58-18.93c-.64 0-1.5.3-1.88-.14-.32-.37-.06-1.2-.12-1.83-.07-.69.16-.86.85-.85l19.17.02h1.73c.85-.03 1.44-.6 1.45-1.37.01-.76-.57-1.35-1.41-1.43-.24-.02-.49 0-.74 0h-19.01c-.65 0-1.51.2-1.9-.13-.42-.35-.06-1.24-.14-1.88s.15-.81.8-.81l19.17.02c.44 0 .88.03 1.32-.03.56-.07 1.02-.5 1.12-1.05.15-.8-.18-1.34-.9-1.63-.32-.13-.65-.09-.97-.09h-18.52c-.65 0-1.53.29-1.89-.12-.33-.39-.07-1.25-.14-1.89-.08-.66.18-.8.81-.8l18.93.01.74-.01c.72-.08 1.27-.69 1.27-1.39 0-.69-.55-1.3-1.27-1.39-.24-.03-.49-.01-.74-.01h-17.69c-.65 0-1.51.21-1.9-.12-.41-.35-.06-1.23-.14-1.88-.07-.62.11-.82.78-.82l16.13.02c.27 0 .55.02.82-.03.72-.13 1.21-.77 1.15-1.48-.05-.69-.56-1.21-1.27-1.28-.24-.02-.49-.01-.74-.01H135.8c-.65 0-1.52.21-1.9-.12-.45-.39-.06-1.29-.16-1.96-.1-.66.2-.74.77-.74l13.5.01c.65 0 1.31.07 1.81-1.03a.88.88 0 0 0 .08-.45c-.06-.73-.46-1.2-1.19-1.3-.27-.04-.55-.02-.82-.02-4.47 0-8.94-.01-13.41.01-.57 0-.83-.1-.74-.78.06-.42.06-.85 0-1.27-.07-.59.02-.79.6-.79h15.14c.49 0 .72.19.96.57 1.05 1.7 2.05 3.43 2.95 5.21 2.96 5.88 4.92 12.05 5.44 18.63.28 3.48.17 6.96-.04 10.44-.32 5.12-.9 10.2-2.47 15.12-.28.88.05 1.63.79 1.9.8.28 1.52-.1 1.86-1.01.41-1.1.7-2.24.97-3.39 1.1-4.77 1.58-9.62 1.77-14.5.17-4.25.18-8.5-.53-12.72-1.17-6.99-3.7-13.48-7.29-19.57-.11-.19-.35-.36-.23-.67.85 0 1.7.03 2.55-.01.51-.03.78.17 1.03.59 2.39 3.9 4.09 8.09 5.33 12.48 2.84 10.1 2.36 20.3.87 30.52-.32 2.18-.8 4.33-1.51 6.41-.4 1.17.46 2.15 1.59 1.91.73-.15.98-.72 1.17-1.34 1.19-3.75 1.81-7.61 2.18-11.52.6-6.37.85-12.75-.02-19.12-.93-6.82-2.98-13.27-6.31-19.31-.1-.18-.3-.33-.21-.61h3.2c.85 0 1.7.03 2.55-.03.73-.05 1.22-.48 1.31-1.24.08-.68-.23-1.19-.85-1.44-.32-.12-.7-.11-1.05-.11-4.31 0-8.61-.02-12.92 0-.61 0-.98-.16-1.34-.68-4.46-6.48-9.77-12.19-15.95-17.06-1.17-.92-1.79-1.81-1.57-3.32.13-.94.06-1.92 0-2.88-.04-.84-.69-1.4-1.45-1.37-.75.03-1.28.57-1.33 1.39-.02.27 0 .55 0 .82l.01 22.3c0 .6-.13.82-.76.79-1.09-.05-2.19-.03-3.29-.01-.99.02-1.58.55-1.57 1.4 0 .84.6 1.38 1.59 1.4zm6.84-18.21c5.5 4.58 10.26 9.6 14.35 15.27-.26.22-.52.13-.74.13-4.25 0-8.49-.02-12.74.03-.76 0-.89-.22-.88-.91l.02-14.51z" fill="#212020"/><g fill="#c10000"><path d="M185.29 72.91h-10.28l-.21 2.91h10.26c.03-1.03.11-2 .23-2.91zm-.21 5.61h-10.3l.17 2.84h10.43l-.3-2.84zm-9.67-8.3h10.4c.28-1.04.63-1.99 1.05-2.84h-10.74c-.28.9-.52 1.84-.71 2.84zm19.69-8.42h-16.34l-1.03 1.68-.52 1.05h11.71c1.58-1.53 3.64-2.44 6.19-2.74zm16.53-4.26c-2.39-1.41-4.78-2.45-7.18-3.13-2.39-.68-5.02-1.02-7.88-1.02-4.08 0-7.75.79-11.01 2.36-1.67.81-3.17 1.88-4.5 3.22h29.85l.72-1.42zm-12.61 4.26c2.9.29 5.64 1.2 8.22 2.74h.85l1.39-2.74h-10.46z"/><path d="M196.99 61.69a16.6 16.6 0 0 0-1.9.11h3.92a19.38 19.38 0 0 0-2.02-.11zm-9.71 25.23a14.67 14.67 0 0 1-1.22-2.72h-10.69c.18.94.41 1.85.67 2.72h11.23zm9.58 14.03c2.72 0 5.29-.39 7.7-1.16 2.42-.77 4.89-1.91 7.42-3.41l-.53-.96h-30.62c3.56 3.69 8.9 5.53 16.03 5.53zm11.54-11.07h-1.28c-1.35.72-2.65 1.31-3.9 1.74-1.56.54-3.37.81-5.45.81-3.26 0-5.91-.86-7.98-2.55h-12.65c.43.95.93 1.84 1.47 2.7h31.27l-1.49-2.7zm118.62-8.84h-11.54l.83-2.52h-9.97l-1.03 2.84h32.1l-1.04-2.84h-10.2l.85 2.52zm-9.83-5.22l.96-2.91h-9.77l-1.06 2.91h9.87zm8.08 0h10.12l-1.06-2.91h-10.04l.98 2.91zm-14.87-8.44l-1.04 2.84h9.67 4.35 9.97l-1.03-2.84H310.4zm2.03-5.58l-1 2.74h19.86l-1-2.74h-17.86zm15.15-7.43h-12.45l-1.67 4.59h15.8l-1.68-4.59zM298.74 99.4v.57h10.48l1.5-4.55h-10.53l-1.45 3.98zm13.8-9.52H302.2l-.98 2.7h10.43l.89-2.7zm28.95 2.7l-.98-2.7h-10.54l.91 2.7h10.61zm-8.14 7.39h10.63v-.57l-1.45-3.98h-10.7l1.52 4.55zm5.09-15.77h-34.17l-.99 2.72h36.15l-.99-2.72z"/><path d="M329.7 89.06h-16.89l-.27.82h17.43l-.27-.82zm-97.57-13.24l.96-2.91h-9.77l-1.06 2.91h9.87zm8.98 2.7l.85 2.52h-11.54l.83-2.52h-9.97l-1.04 2.84h32.1l-1.03-2.84h-10.2zm9.22-2.7l-1.06-2.91h-10.04l.98 2.91h10.12zm-25-8.44l-1.03 2.84h9.67 4.35 9.97l-1.03-2.84h-21.93zm17.19-13.01h-12.45l-1.67 4.59h15.79l-1.67-4.59zm-15.16 7.43l-.99 2.74h19.85l-.99-2.74h-17.87zm26.02 22.4h-34.17l-.99 2.72h36.15l-.99-2.72zm-39.71 15.2v.57h10.49l1.49-4.55h-10.52l-1.46 3.98zm13.8-9.52h-10.33l-.98 2.7h10.43l.88-2.7zm20.82 10.09h10.62v-.57l-1.45-3.98h-10.7l1.53 4.55zm8.14-7.39l-.98-2.7h-10.54l.9 2.7h10.62z"/><path d="M244.63 89.06h-16.88l-.28.82h17.44l-.28-.82zm22.74-13.24h22.95c-.08-.04-.15-.09-.23-.13-1.63-.87-3.71-1.8-6.24-2.78H264.5c.78 1.11 1.74 2.08 2.87 2.91zm26.27 2.7H272.3l3.5 1.47 1.62.63 1.82.74h16.31c-.23-.51-.5-.99-.81-1.44-.34-.5-.71-.96-1.1-1.4zm-19.08-15.84c.61-.4 1.37-.69 2.28-.87h-13.53c-.33.85-.54 1.76-.65 2.74h10.37c.25-.74.75-1.36 1.52-1.86zm-11.4 7.54h13.86l-.95-.47c-1.21-.63-2.05-1.27-2.52-1.9a3.31 3.31 0 0 1-.29-.47h-10.62c.08 1.02.26 1.97.53 2.84zm19.48-8.42c.89.15 1.75.37 2.58.66 1.33.47 2.81 1.16 4.43 2.07h2.09l1.8-2.74h-10.91zm13.07-3.27c-2.53-1.69-5.2-2.97-7.99-3.83-2.79-.87-5.5-1.3-8.13-1.3-2.91 0-5.65.45-8.23 1.34s-4.69 2.29-6.33 4.19c-.01.02-.03.04-.04.05h30.43l.29-.44z"/><path d="M279.63 61.55a14.45 14.45 0 0 0-2.79.25h5.8c-.97-.17-1.97-.25-3.01-.25zm5.99 23.47c.38.53.61 1.17.7 1.91h10.31c0-.97-.08-1.88-.23-2.72h-11.57c.32.27.59.54.79.82zm-18.26 4.86h-3.29l-1.74 2.7h13.9c-2.91-.24-5.87-1.13-8.87-2.7zm-6.9 5.58c4.93 3.66 10.91 5.49 17.94 5.49 3.47 0 6.58-.52 9.32-1.55 2.43-.91 4.41-2.24 5.94-3.99h-33.17l-.03.05zm35.9-5.58h-10.63c-.38.59-.93 1.1-1.66 1.5-1.17.65-2.69 1.05-4.55 1.2h15.99a12.33 12.33 0 0 0 .85-2.7z"/><path d="M279.52 92.58h-3.29l1.54.07 1.75-.07z"/></g><rect x="21.95" y="103.52" width="325.52" height="3.04" rx=".22" fill="#212020"/><text font-family="JannaLT-Bold,Janna LT" font-size="11.68"><tspan x="188.75" y="118.75">م.م.ذ تاراقعلل اساكدوم</tspan></text><text transform="matrix(.9 0 0 1 27.21 120.78)" font-family="Dubai-Bold,Dubai" font-size="10.64"><tspan x="0" y="0">MODCASA REAL ESTATE L.L.C</tspan></text><rect x="178.96" y="110.82" width=".92" height="13.6" rx=".07"/></svg>