<svg xmlns="http://www.w3.org/2000/svg" viewBox="0 0 120 38" xmlns:v="https://vecta.io/nano"><style><![CDATA[.F{letter-spacing:2}.I{font-family:Dubai-Bold}.J{font-size:3.489px}.K{font-family:JannaLT-Bold}.L{font-size:4.235px}]]></style><path d="M39 6.6l.3-.3c.1.3 0 .4-.3.3" fill="#e5e5e5"/><path d="M18.2 11.4v16.7h-1.5V13.7l-1 1.9-5.1 9.6H9.3l-5-9.6-.3-.5-.7-1.3v14.4H1.9V11.4h1.7l5.1 9.7.4.7 1 2c.2-.4.3-.8.6-1.3.2-.5.5-.9.7-1.4l5.2-9.7h1.6zM25.5 27c-1.1-.7-2-1.7-2.6-3.1-.6-1.3-.9-2.8-.9-4.5 0-1.9.4-3.5 1.1-4.8s1.7-2.2 2.8-2.8c1.2-.6 2.4-.9 3.8-.9 1.6 0 2.9.4 4.1 1.1 1.1.7 2 1.7 2.6 3.1.6 1.3.9 2.8.9 4.5 0 1.9-.4 3.5-1.1 4.8s-1.6 2.2-2.8 2.8-2.4.9-3.8.9c-1.6 0-2.9-.3-4.1-1.1m7.5-1c.9-.6 1.6-1.5 2.1-2.6s.7-2.4.7-3.8-.2-2.7-.7-3.9c-.5-1.1-1.1-2-2-2.7-.9-.6-2-1-3.4-1-1.3 0-2.5.3-3.4.9s-1.7 1.5-2.1 2.6c-.5 1.1-.7 2.4-.7 3.8s.2 2.7.7 3.8 1.1 2 2 2.7c.9.6 2 1 3.4 1 1.4.1 2.5-.2 3.4-.8m5.4-16.3h1.1c.3 0 .4 0 .4.4V29v.1h1v-.5c0-.2.1-.3.3-.3h6.7.4c.2-.1.4-.3.3-.5 0-.3-.2-.4-.5-.4h-.3-6.2c-.7 0-.7 0-.7-.7 0-.2 0-.3.3-.3h7c.2 0 .5 0 .7-.3 0-.1.1-.2.1-.3 0-.2-.2-.4-.4-.4h-.3-6.5c-.2 0-.6.1-.7 0-.2-.1 0-.5-.1-.7 0-.2.1-.3.3-.3h7.2c.2 0 .3 0 .5-.1a.55.55 0 0 0 .3-.5c0-.2-.2-.4-.4-.4h-.3-6.9c-.7 0-.6 0-.7-.7 0-.3.1-.4.4-.4h7.5c.4 0 .6-.2.6-.5s-.2-.5-.6-.5h-.2-7c-.2 0-.6.1-.7-.1-.1-.1 0-.4 0-.7s.1-.3.3-.3h7.1.6a.47.47 0 0 0 .5-.5.47.47 0 0 0-.5-.5h-.3-7c-.2 0-.6.1-.7 0-.2-.1 0-.5-.1-.7 0-.2.1-.3.3-.3h7.1.5c.2 0 .4-.2.4-.4.1-.3-.1-.5-.3-.6h-.4-6.8c-.2 0-.6.1-.7 0s0-.5-.1-.7c0-.2.1-.3.3-.3h7 .3c.3 0 .5-.3.5-.5a.47.47 0 0 0-.5-.5h-.3-6.5c-.2 0-.6.1-.7 0-.2-.1 0-.5-.1-.7 0-.2 0-.3.3-.3h5.9.3c.3 0 .4-.3.4-.5 0-.3-.2-.4-.5-.5H47h-5.5c-.2 0-.6.1-.7 0-.2-.1 0-.5-.1-.7 0-.2.1-.3.3-.3h5c.2 0 .5 0 .7-.4v-.2c0-.3-.2-.4-.4-.5H46h-4.9c-.2 0-.3 0-.3-.3v-.5c0-.2 0-.3.2-.3h5.6c.2 0 .3.1.4.2.4.6.8 1.3 1.1 1.9 1.1 2.2 1.8 4.4 2 6.8.1 1.3.1 2.6 0 3.8-.1 1.9-.3 3.7-.9 5.5-.1.3 0 .6.3.7s.6 0 .7-.4c.2-.4.3-.8.4-1.2.4-1.7.6-3.5.7-5.3.1-1.6.1-3.1-.2-4.7-.4-2.6-1.4-4.9-2.7-7.2 0-.1-.1-.1-.1-.2h.9c.2 0 .3.1.4.2.9 1.4 1.5 3 2 4.6 1 3.7.9 7.4.3 11.2-.1.8-.3 1.6-.6 2.3-.1.4.2.8.6.7.3-.1.4-.3.4-.5.4-1.4.7-2.8.8-4.2.2-2.3.3-4.7 0-7-.3-2.5-1.1-4.9-2.3-7.1 0-.1-.1-.1-.1-.2h1.2.9c.3 0 .4-.2.5-.5a.55.55 0 0 0-.3-.5h-.4-4.8c-.2 0-.4-.1-.5-.2-1.6-2.4-3.6-4.5-5.9-6.3-.4-.3-.7-.7-.6-1.2V.1c0-.3-.3-.5-.5-.5a.47.47 0 0 0-.5.5v.3 8.2c0 .2 0 .3-.3.3h-1.2c-.4 0-.6.2-.6.5.1.1.3.3.7.3M40.9 3c2 1.7 3.8 3.5 5.3 5.6-.1.1-.2 0-.3 0h-4.7c-.3 0-.3-.1-.3-.3V3" fill="#212020"/><g fill="#c10000"><path d="M59.9 17.9h-3.8c0 .3-.1.7-.1 1.1h3.8c0-.4 0-.8.1-1.1m-.1 2H56c0 .4 0 .7.1 1h3.8c0-.3-.1-.6-.1-1m-3.5-3h3.8c.1-.4.2-.7.4-1h-4c-.1.3-.2.6-.2 1m7.2-3.1h-6c-.1.2-.3.4-.4.6-.1.1-.1.3-.2.4h4.3c.6-.6 1.4-.9 2.3-1m6.1-1.6c-.9-.5-1.8-.9-2.6-1.1-.9-.2-1.9-.4-2.9-.4-1.5 0-2.9.3-4.1.9a6.57 6.57 0 0 0-1.7 1.2h11l.3-.6z"/><path d="M65 13.8c1.1.1 2.1.4 3 1h.3l.5-1H65z"/><path d="M64.2 13.8h-.7H65M60.6 23c-.2-.3-.3-.6-.4-1h-3.9c.1.3.2.7.2 1h4.1zm3.6 5.1c1 0 1.9-.1 2.8-.4s1.8-.7 2.7-1.3l-.2-.4H58.2c1.4 1.5 3.3 2.1 6 2.1m4.2-4h-.5c-.5.3-1 .5-1.4.6-.6.2-1.2.3-2 .3-1.2 0-2.2-.3-2.9-.9h-4.7c.2.3.3.7.5 1H69l-.6-1zm43.7-3.3h-4.2l.3-.9h-3.7l-.4 1.1H116l-.4-1.1h-3.8zm-3.6-1.9l.4-1h-3.6l-.4 1zm3 0h3.7l-.4-1h-3.7zm-5.5-3.1l-.4 1.1h3.6 1.6 3.7l-.4-1.1zm.8-2l-.4 1h7.3l-.4-1zm5.5-2.7h-4.5l-.7 1.7h5.9zm-10.6 16.5v.2h3.9l.5-1.7h-3.9zm5.1-3.5H103l-.4 1h3.9zm10.7 1l-.4-1h-3.9l.4 1zm-3 2.7h3.9v-.2l-.5-1.5h-4zm1.9-5.8h-12.6l-.4 1h13.3z"/><path d="M113.1 23.8h-6.2l-.1.3h6.4zm-35.9-4.9l.3-1h-3.6l-.4 1zm3.3 1l.3.9h-4.3l.3-.9h-3.6l-.4 1.1h11.8l-.4-1.1zm3.4-1l-.4-1h-3.7l.3 1zm-9.2-3.1l-.4 1.1h3.5 1.6 3.7l-.4-1.1zm6.3-4.7h-4.6l-.6 1.7h5.8zm-5.6 2.7l-.4 1h7.4l-.4-1zM85 22H72.4l-.4 1h13.4zm-14.6 5.6v.2h3.8l.6-1.7h-3.9zm5-3.5h-3.8l-.3 1h3.8zm7.7 3.7H87v-.2l-.5-1.5h-3.9zm3-2.7l-.3-1h-3.9l.3 1z"/><path d="M81.8 23.8h-6.3l-.1.3h6.5zm8.3-4.9h8.5-.1c-.6-.3-1.4-.7-2.3-1h-7.1a4.74 4.74 0 0 0 1 1m9.7 1H92c.4.2.8.4 1.3.5l.6.2c.2.1.5.2.7.3h6c-.1-.2-.2-.4-.3-.5-.2-.1-.3-.3-.5-.5m-7-5.8c.2-.1.5-.3.8-.3h-5c-.1.3-.2.6-.2 1h3.8c.1-.3.3-.5.6-.7m-4.2 2.8h5.1c-.1-.1-.2-.1-.4-.2-.4-.2-.8-.5-.9-.7 0-.1-.1-.1-.1-.2h-3.9c0 .4.1.8.2 1.1m7.2-3.1c.3.1.6.1 1 .2.5.2 1 .4 1.6.8h.8l.7-1h-4.1zm4.8-1.2c-.9-.6-1.9-1.1-2.9-1.4s-2-.5-3-.5c-1.1 0-2.1.2-3 .5-1 .3-1.7.8-2.3 1.5h11.2v-.1z"/><path d="M94.7 13.7c-.4 0-.7 0-1 .1h2.1c-.4-.1-.7-.1-1.1-.1m2.2 8.6c.1.2.2.4.3.7h3.8c0-.4 0-.7-.1-1h-4.3l.3.3m-6.8 1.8h-1.2l-.6 1h5.1c-1.1-.1-2.1-.4-3.3-1m-2.5 2c1.8 1.3 4 2 6.6 2 1.3 0 2.4-.2 3.4-.6.9-.3 1.6-.8 2.2-1.5l-12.2.1h0zm13.2-2h-3.9c-.1.2-.3.4-.6.5-.4.2-1 .4-1.7.4h5.9c.2-.2.3-.6.3-.9"/><path d="M94.6 25.1h-1.2 1.2"/></g><path d="M119.2 30.2H.2a.47.47 0 0 1-.5-.5v-.1a.47.47 0 0 1 .5-.5h119a.47.47 0 0 1 .5.5v.1a.47.47 0 0 1-.5.5" fill="#212020"/><text transform="matrix(1.017 0 0 1 61.167 34.4902)"><tspan x="0" y="0" class="K L">م.م.</tspan><tspan x="10.9" class="F K L" y="0">ذ</tspan><tspan x="15.8" y="0" class="K L"> تار</tspan><tspan x="25.4" y="0" class="K L">ﺎﻘﻌﻠ</tspan><tspan x="32.9" class="F K L" y="0">ﻟ</tspan><tspan x="38.8" y="0" class="K L">ﺎ</tspan><tspan x="39.8" y="0" class="K L">ﺳ</tspan><tspan x="44.4" y="0" class="K L">ﺎ</tspan><tspan x="45.5" y="0" class="K L">ﻛد</tspan><tspan x="50.9" y="0" class="K L">ﻮﻣ</tspan></text><text transform="matrix(1.017 0 0 1.1051 1.6172 35.2217)"><tspan x="0" y="0" class="I J">MODC</tspan><tspan x="10.8" y="0" class="I J">A</tspan><tspan x="13.3" y="0" class="I J">S</tspan><tspan x="15.5" y="0" class="I J">A REAL E</tspan><tspan x="31.4" y="0" class="I J">S</tspan><tspan x="33.5" y="0" class="I J">TA</tspan><tspan x="37.7" y="0" class="I J">TE </tspan><tspan x="43.1" y="0" class="I J">L</tspan><tspan x="45.3" y="0" class="I J">.</tspan><tspan x="46.3" y="0" class="I J">L</tspan><tspan x="48.5" y="0" class="I J">.</tspan><tspan x="49.4" y="0" class="I J">C</tspan></text><path d="M57.8 36.7h-.2s-.1 0-.1-.1v-4.8s0-.1.1-.1h.2s.1 0 .1.1l-.1 4.9"/></svg>