<?xml version="1.0" encoding="UTF-8"?>
<svg id="Layer_2" data-name="Layer 2" xmlns="http://www.w3.org/2000/svg" viewBox="0 0 313.41 130.33">
  <defs>
    <style>
      .cls-1 {
        fill: #1b1c20;
      }
    </style>
  </defs>
  <g id="_Слой_2" data-name=" Слой 2">
    <g id="_лой_2" data-name=" лой 2">
      <path class="cls-1" d="m73.75,40.53c-10.73,0-18.4-7.12-18.4-19.17S62.91,2.31,73.42,2.31c4.82,0,8.21,1.2,12.27,3.94l1.2-.99c-4.27-3.72-8.65-5.26-15.44-5.26-13.47,0-23.11,7.89-23.11,21.36s9.75,21.36,23,21.36c6.46,0,11.5-1.31,16.21-5.15l-1.2-.99c-3.83,2.63-7.23,3.94-12.59,3.94h0Z"/>
      <polygon class="cls-1" points="174.07 40.31 152.49 40.31 152.49 23.99 169.25 23.99 169.25 22.02 152.49 22.02 152.49 2.42 173.41 2.42 173.41 .56 146.25 .56 146.25 42.18 174.07 42.18 174.07 40.31"/>
      <polygon class="cls-1" points="215.8 40.31 194.22 40.31 194.22 23.99 210.98 23.99 210.98 22.02 194.22 22.02 194.22 2.42 215.14 2.42 215.14 .56 187.98 .56 187.98 42.18 215.8 42.18 215.8 40.31"/>
      <polygon class="cls-1" points="262.67 .56 262.56 .67 262.67 .67 262.67 .56"/>
      <polygon class="cls-1" points="236.82 25.09 242.08 20.05 257.74 42.28 265.08 42.28 246.46 15.89 262.56 .67 260.04 .67 236.82 22.35 236.82 .67 230.58 .67 230.58 42.28 236.82 42.28 236.82 25.09"/>
      <path class="cls-1" d="m107.48,2.42h5.26c7.78,0,11.61,3.5,11.61,9.86s-3.83,9.2-11.61,9.2h-1.31l15.55,20.81h7.23c-.11-.11-14.68-19.28-14.68-19.28,7.23-1.2,11.61-4.71,11.61-10.84,0-7.99-6.68-11.61-17.63-11.61h-12.27v41.62h6.24V2.42Z"/>
      <polygon class="cls-1" points="179.28 101.09 157.71 101.09 157.71 84.77 174.47 84.77 174.47 82.8 157.71 82.8 157.71 63.19 178.52 63.19 178.52 61.33 151.47 61.33 151.47 102.95 179.28 102.95 179.28 101.09"/>
      <polygon class="cls-1" points="39.1 102.95 45.45 102.95 57.39 61.33 54.54 61.33 43.81 99.11 33.4 61.33 27.05 61.33 16.54 99.11 6.57 61.33 0 61.33 11.72 102.95 18.07 102.95 28.69 65.6 39.1 102.95"/>
      <path class="cls-1" d="m124.96,102.95v-39.76h12.81v-1.86h-32.31v1.86h13.25c.11,0,.11,39.76,0,39.76h6.25Z"/>
      <path class="cls-1" d="m242.15,70.09c0-4.49,3.61-7.23,8.87-7.23,4.27,0,7.67,1.42,10.51,3.83l1.2-.99c-2.74-2.52-6.24-4.93-11.94-4.93-8.76,0-13.91,4.05-13.91,10.51,0,12.7,22.12,10.73,22.12,22.45,0,4.49-3.94,7.67-9.97,7.67-5.48,0-10.29-2.63-13.03-5.04l-1.1.99c2.96,2.74,7.56,6.24,15.11,6.24s14.13-4.05,14.13-11.28c0-14.79-22.01-12.38-22.01-22.23h.02Z"/>
      <path class="cls-1" d="m224.95,71.84c0-7.99-6.68-11.61-17.63-11.61h-12.27v41.62h6.24v-39.76h5.26c7.78,0,11.61,3.5,11.61,9.86s-3.83,9.2-11.61,9.2l-1.31-.11,15.55,20.81h7.23l-14.68-19.17c7.23-1.2,11.61-4.71,11.61-10.84h0Z"/>
      <path class="cls-1" d="m161.54,130.22c5.04-.22,12.92-.66,22.45-4.16,6.35-2.3,11.17-5.15,14.57-7.34-3.18,1.86-7.67,4.05-13.36,5.8-3.72,1.2-11.61,3.18-23.66,2.85-16.54-.55-29.46-5.37-41.62-9.97-3.94-1.53-9.42-3.72-26.39-10.29-4.93-1.86-10.84-4.16-18.84-4.6-3.42-.23-6.4-.08-8.83.17,4.99-12.25,9.97-24.61,14.96-36.86,4.82,12.38,9.64,24.86,14.57,37.24h6.57l-16.54-41.62h-5.37l-17.09,41.62-.66,1.31c3.29-.44,8.32-.77,14.24.33,2.63.44,5.37,1.31,12.92,4.16,7.67,2.96,13.36,5.48,15,6.24,15.99,7.23,23.98,10.84,31.1,12.7,3.5.88,13.25,3.07,25.96,2.41h.02Z"/>
      <path class="cls-1" d="m286.25,68.26h2.58s3.58-4.83,10.33-4.83,9.83,5.08,9.75,9.33c0,4.58-2.25,7.08-11.25,11.75s-12.25,9.5-12.25,14.17v4.93h27.67v-2.26h-23.25v-.69c0-2.21.72-4.37,2.13-6.07.94-1.13,1.99-2.08,3.78-3.18,1.07-.65,2.19-1.2,3.34-1.7,8.32-3.58,14.33-7.51,14.33-16.77,0-9.75-7.92-12.69-14-12.69s-10.75,3.28-13.17,8.03v-.02Z"/>
    </g>
  </g>
</svg>